<?xml version="1.0" standalone="no"?>
<!DOCTYPE svg PUBLIC "-//W3C//DTD SVG 20010904//EN"
 "http://www.w3.org/TR/2001/REC-SVG-20010904/DTD/svg10.dtd">
<svg version="1.0" xmlns="http://www.w3.org/2000/svg"
 width="64.000000pt" height="64.000000pt" viewBox="0 0 64.000000 64.000000"
 preserveAspectRatio="xMidYMid meet">

<g transform="translate(0.000000,64.000000) scale(0.100000,-0.100000)"
fill="#000000" stroke="none">
<path d="M286 600 c-94 -29 -121 -151 -46 -214 l30 -25 0 -135 c0 -130 1 -136
25 -163 l25 -28 25 28 c27 30 32 56 13 75 -8 8 -8 15 2 27 10 12 10 18 0 30
-9 11 -10 19 -1 28 8 10 7 17 -1 25 -9 9 -9 15 0 24 7 7 12 29 12 51 0 30 6
44 30 63 36 31 52 82 39 128 -10 35 -59 86 -84 86 -7 0 -19 2 -27 4 -7 2 -26
0 -42 -4z m110 -44 c28 -28 34 -42 34 -76 0 -34 -6 -48 -34 -76 -28 -28 -42
-34 -76 -34 -34 0 -48 6 -76 34 -28 28 -34 42 -34 76 0 60 50 110 110 110 34
0 48 -6 76 -34z m-49 -339 c-2 -122 -4 -141 -20 -151 -30 -19 -37 10 -37 155
l0 136 29 0 29 0 -1 -140z"/>
<path d="M296 534 c-9 -8 -16 -19 -16 -24 0 -11 29 -40 40 -40 11 0 40 29 40
40 0 11 -29 40 -40 40 -5 0 -16 -7 -24 -16z m44 -24 c0 -13 -7 -20 -20 -20
-13 0 -20 7 -20 20 0 13 7 20 20 20 13 0 20 -7 20 -20z"/>
<path d="M96 404 c-15 -15 -12 -44 5 -44 5 0 29 -18 53 -40 40 -37 86 -53 86
-30 0 6 -12 10 -26 10 -27 0 -68 40 -70 70 -1 8 -2 20 -3 26 -2 19 -29 24 -45
8z m34 -19 c0 -8 -7 -15 -15 -15 -8 0 -15 7 -15 15 0 8 7 15 15 15 8 0 15 -7
15 -15z"/>
<path d="M510 410 c-7 -4 -13 -19 -14 -32 -2 -36 -39 -78 -70 -78 -14 0 -26
-4 -26 -10 0 -23 46 -7 89 31 25 22 51 45 58 50 25 19 -10 56 -37 39z m30 -25
c0 -8 -7 -15 -15 -15 -8 0 -15 7 -15 15 0 8 7 15 15 15 8 0 15 -7 15 -15z"/>
<path d="M56 254 c-26 -26 4 -63 35 -43 8 5 44 9 82 9 38 0 67 4 67 10 0 6
-30 10 -70 10 -38 0 -70 4 -70 9 0 17 -29 20 -44 5z m34 -19 c0 -8 -7 -15 -15
-15 -8 0 -15 7 -15 15 0 8 7 15 15 15 8 0 15 -7 15 -15z"/>
<path d="M546 254 c-17 -16 -12 -40 9 -48 19 -7 46 20 39 39 -8 21 -32 26 -48
9z m34 -19 c0 -8 -7 -15 -15 -15 -8 0 -15 7 -15 15 0 8 7 15 15 15 8 0 15 -7
15 -15z"/>
<path d="M390 230 c0 -5 5 -10 10 -10 6 0 10 5 10 10 0 6 -4 10 -10 10 -5 0
-10 -4 -10 -10z"/>
<path d="M440 230 c0 -5 5 -10 10 -10 6 0 10 5 10 10 0 6 -4 10 -10 10 -5 0
-10 -4 -10 -10z"/>
<path d="M490 230 c0 -5 5 -10 10 -10 6 0 10 5 10 10 0 6 -4 10 -10 10 -5 0
-10 -4 -10 -10z"/>
<path d="M150 139 c-25 -22 -50 -45 -57 -50 -14 -11 -8 -35 11 -42 20 -8 39 9
40 35 2 36 39 78 70 78 14 0 26 5 26 10 0 23 -48 7 -90 -31z m-20 -64 c0 -8
-7 -15 -15 -15 -8 0 -15 7 -15 15 0 8 7 15 15 15 8 0 15 -7 15 -15z"/>
<path d="M400 170 c0 -5 12 -10 26 -10 31 0 68 -42 70 -78 1 -26 20 -43 40
-35 19 7 25 31 11 42 -7 5 -33 28 -58 50 -43 38 -89 54 -89 31z m140 -95 c0
-8 -7 -15 -15 -15 -8 0 -15 7 -15 15 0 8 7 15 15 15 8 0 15 -7 15 -15z"/>
</g>
</svg>
