<?xml version="1.0" standalone="no"?>
<!DOCTYPE svg PUBLIC "-//W3C//DTD SVG 20010904//EN"
 "http://www.w3.org/TR/2001/REC-SVG-20010904/DTD/svg10.dtd">
<svg version="1.0" xmlns="http://www.w3.org/2000/svg"
 width="1080.000000pt" height="1080.000000pt" viewBox="0 0 1080.000000 1080.000000"
 preserveAspectRatio="xMidYMid meet">

<g transform="translate(0.000000,1080.000000) scale(0.100000,-0.100000)"
fill="#000000" stroke="none">
<path d="M10015 7483 c-77 -12 -246 -38 -375 -58 -327 -49 -310 -46 -310 -63
0 -8 16 -104 35 -213 19 -110 35 -207 35 -217 0 -11 -9 -27 -19 -36 -18 -17
-19 -16 -25 11 -11 53 -55 308 -67 388 -6 44 -15 86 -19 93 -4 9 -39 -25 -105
-104 l-99 -117 33 -191 c58 -343 53 -321 84 -318 30 3 35 -13 14 -41 -11 -16
-19 -10 -81 52 l-69 69 21 34 20 33 -42 233 c-25 138 -47 237 -55 241 -7 5
-12 12 -11 17 5 26 -40 24 -251 -9 -123 -20 -285 -45 -359 -56 -366 -54 -561
-85 -570 -91 -11 -7 -4 -58 39 -290 36 -194 37 -210 11 -241 -18 -22 -19 -22
-20 -5 0 11 -3 17 -6 13 -5 -5 23 -197 29 -203 1 -1 38 4 81 10 l79 13 211
-185 c224 -197 389 -344 419 -372 12 -11 24 -52 36 -119 21 -115 22 -113 -54
-125 -75 -13 -73 2 -26 -268 24 -134 48 -246 53 -249 12 -8 -8 -148 -28 -198
-8 -18 -14 -57 -14 -85 0 -54 -25 -224 -34 -234 -10 -10 -36 20 -36 42 0 12
16 115 35 230 20 115 35 209 33 211 -2 1 -75 10 -163 19 -88 10 -205 24 -260
31 -202 27 -286 37 -290 33 -2 -2 -11 -48 -20 -103 -16 -99 -71 -314 -84 -327
-3 -4 -5 12 -3 36 3 35 -7 68 -48 165 -34 77 -64 132 -82 149 -43 39 -102 101
-111 118 -4 8 -12 14 -17 14 -5 0 2 -28 16 -62 28 -72 30 -94 8 -102 -9 -3
-17 -6 -18 -6 -2 0 -18 38 -36 84 -37 96 -20 87 -195 106 -49 5 -166 19 -260
30 -307 38 -386 46 -390 40 -5 -7 -26 -163 -23 -165 2 -1 12 -7 23 -13 20 -11
20 -11 -1 -12 -21 0 -34 -17 -34 -46 0 -10 6 -11 25 -4 21 8 25 7 25 -10 0
-10 8 -24 18 -29 16 -10 16 -10 -2 -11 -16 0 -17 -5 -12 -32 4 -18 11 -35 17
-37 7 -2 6 -7 -2 -12 -10 -6 -7 -9 10 -9 23 0 23 1 8 18 -24 26 -21 37 6 20
12 -9 36 -14 54 -13 22 1 30 -2 26 -12 -6 -15 -23 -18 -23 -3 0 6 -4 10 -10
10 -16 0 1 -29 21 -35 25 -8 25 -25 -1 -20 -11 2 -20 -1 -20 -7 0 -10 25 -8
65 7 19 6 19 6 1 -9 -18 -14 -17 -15 8 -22 14 -3 23 -10 20 -15 -3 -5 4 -9 14
-9 15 0 19 -5 15 -21 -4 -16 -8 -17 -14 -7 -7 10 -9 8 -10 -7 -1 -11 -1 -23 0
-27 0 -5 -4 -8 -10 -8 -7 0 -9 -10 -5 -26 6 -22 4 -25 -9 -20 -9 3 -13 2 -10
-4 3 -6 15 -10 25 -10 26 0 34 -17 13 -29 -16 -8 -15 -11 10 -22 38 -17 34
-31 -8 -27 -19 2 -33 -1 -32 -7 1 -5 8 -9 15 -9 6 1 12 -2 12 -6 0 -4 10 -10
21 -13 18 -5 21 -11 15 -38 -5 -27 -4 -30 9 -19 8 7 12 16 9 21 -3 5 -2 9 3 8
22 -4 33 3 33 19 0 11 3 13 8 5 11 -18 47 -20 48 -3 1 8 2 19 3 24 0 5 8 3 17
-5 13 -10 17 -10 24 1 5 8 7 -2 5 -25 -3 -30 1 -42 16 -53 16 -11 17 -17 8
-28 -9 -11 -8 -15 2 -18 73 -23 74 -24 57 -31 -23 -9 -91 24 -84 41 3 8 0 14
-5 14 -6 0 -27 14 -46 30 -18 16 -39 30 -45 30 -6 0 -9 -2 -6 -5 3 -3 -8 -19
-24 -35 -29 -29 -64 -31 -54 -3 8 21 -4 39 -15 22 -7 -11 -9 -11 -9 -1 0 10
-5 10 -20 2 -24 -13 -18 -30 11 -30 10 0 19 -7 19 -15 0 -14 11 -19 38 -16 7
1 15 -5 18 -14 4 -8 18 -15 34 -15 16 0 30 -5 32 -11 2 -6 15 -12 28 -13 22
-1 25 -6 28 -44 2 -24 -1 -42 -6 -39 -4 3 -7 -12 -6 -33 3 -59 -6 -93 -21 -80
-9 7 -16 6 -24 -4 -10 -12 -8 -18 8 -33 22 -19 28 -48 11 -58 -6 -4 -8 -10 -5
-15 3 -4 -2 -10 -10 -14 -18 -7 -20 -32 -2 -39 6 -3 0 -6 -15 -6 -17 -1 -27
-6 -25 -13 1 -7 -4 -12 -10 -11 -7 2 -13 -2 -13 -8 0 -6 -7 -9 -15 -5 -8 3
-15 2 -15 -2 0 -10 58 -42 76 -42 8 0 14 -4 14 -10 0 -6 -9 -6 -25 0 -30 12
-33 0 -4 -18 19 -12 20 -19 14 -69 -4 -31 -9 -63 -13 -71 -4 -12 -1 -14 14 -7
10 4 29 10 40 12 26 6 134 -15 134 -26 0 -3 -14 -15 -31 -25 -20 -12 -28 -23
-24 -34 3 -8 0 -41 -6 -71 -7 -31 -14 -48 -17 -39 -3 16 -5 16 -19 2 -9 -8
-22 -13 -30 -10 -18 7 -25 -12 -15 -48 7 -27 9 -28 25 -12 9 10 17 24 17 32 0
12 3 12 13 2 14 -12 11 -54 -4 -74 -5 -6 -21 -9 -35 -6 -25 4 -25 3 -14 -18
11 -21 11 -22 -14 -18 -16 3 -26 1 -26 -7 0 -6 -11 -18 -25 -25 -14 -8 -25
-22 -25 -34 0 -16 -2 -18 -9 -7 -5 8 -16 11 -25 8 -10 -4 -16 -1 -16 8 0 8 -9
15 -20 15 -11 0 -20 -5 -20 -11 0 -5 -4 -7 -10 -4 -5 3 -10 2 -10 -4 0 -15
-61 -6 -71 10 -6 10 -9 11 -9 2 0 -7 -7 -13 -16 -13 -8 0 -12 4 -9 10 4 6 -5
8 -22 5 -15 -3 -89 5 -163 18 l-135 23 -5 39 -5 40 -13 -34 c-14 -39 -16 -81
-4 -81 5 0 170 -29 367 -65 l359 -65 124 17 c142 19 134 12 153 131 6 41 15
70 19 65 5 -4 33 -71 64 -148 l55 -140 343 -62 343 -63 52 35 c43 28 52 40 57
72 3 21 45 274 92 563 47 289 90 554 96 590 5 36 13 69 17 73 4 4 33 5 64 1
54 -6 57 -8 57 -35 l0 -29 70 0 70 0 -2 -387 -3 -387 -70 -27 -70 -27 -3 -261
-2 -260 32 -6 c68 -13 1717 1 1866 15 l142 13 0 349 c0 191 -4 348 -8 348 -4
0 -13 -5 -19 -11 -8 -8 -44 -9 -117 -4 -90 6 -106 10 -104 24 2 13 -7 17 -47
19 -64 4 -115 -5 -112 -21 3 -18 -78 -11 -109 9 -23 16 -31 15 -140 -11 -63
-15 -117 -26 -119 -24 -2 2 55 31 126 63 l129 58 0 149 0 149 45 0 c40 0 72
15 237 107 l191 107 -6 240 c-4 133 -7 286 -7 341 l0 100 -88 2 c-124 3 -447
24 -1322 87 -173 13 -318 21 -322 19 -5 -2 -8 -109 -8 -237 l0 -233 -25 -23
-25 -23 0 125 c0 69 3 193 7 277 l6 153 76 -6 c563 -45 506 -46 831 14 157 29
289 56 293 60 5 5 -13 132 -39 283 -34 193 -52 271 -58 259 -5 -9 -10 -19 -12
-20 -1 -2 -39 -12 -83 -22 -79 -17 -82 -17 -91 0 -17 32 -12 37 40 44 28 4 60
11 73 16 17 7 9 9 -35 9 -64 1 -55 -15 -83 141 l-15 85 164 369 164 369 104
79 c56 44 107 83 111 87 6 6 -66 458 -86 536 -1 6 -54 2 -142 -12z m-565 -670
c0 -5 -11 -26 -25 -48 -27 -45 -35 -24 -10 25 14 27 35 41 35 23z m-127 -366
c-3 -5 -13 -1 -22 7 -14 12 -20 13 -30 3 -9 -9 -19 -4 -46 28 -40 46 -41 51
-17 60 12 4 25 -3 43 -24 26 -31 39 -39 39 -22 0 5 5 22 12 38 11 27 12 27 19
-27 4 -30 5 -58 2 -63z m-462 -658 c33 -185 34 -189 12 -189 -9 0 -13 3 -10 7
4 3 0 14 -9 24 -9 10 -26 75 -41 154 -20 109 -22 139 -12 151 6 8 17 13 23 11
5 -2 22 -73 37 -158z m-129 -209 c17 0 20 -2 9 -9 -12 -8 -10 -34 13 -178 15
-92 30 -177 32 -188 2 -11 -4 -30 -14 -43 -18 -23 -19 -21 -56 185 -21 114
-40 219 -43 232 -5 21 -4 22 15 12 11 -6 31 -11 44 -11z m68 6 c0 -2 -9 -6
-20 -9 -11 -3 -20 -1 -20 4 0 5 9 9 20 9 11 0 20 -2 20 -4z m-2075 -416 c3 -5
1 -10 -4 -10 -6 0 -11 5 -11 10 0 6 2 10 4 10 3 0 8 -4 11 -10z m155 0 c11 -7
5 -8 -20 -4 -43 8 -51 14 -19 14 13 0 31 -5 39 -10z m-150 -71 c0 -6 -4 -7
-10 -4 -5 3 -10 11 -10 16 0 6 5 7 10 4 6 -3 10 -11 10 -16z m1968 -66 c-10
-13 -13 -12 -19 4 -9 25 0 36 17 22 11 -9 12 -15 2 -26z m-1941 -9 c-3 -3 -12
-4 -19 -1 -8 3 -5 6 6 6 11 1 17 -2 13 -5z m398 -24 c3 -6 -1 -7 -9 -4 -18 7
-21 14 -7 14 6 0 13 -4 16 -10z m40 -200 c3 -5 -1 -10 -9 -10 -9 0 -16 5 -16
10 0 6 4 10 9 10 6 0 13 -4 16 -10z m-311 -61 c-6 -11 -24 -2 -24 11 0 5 7 7
15 4 8 -4 12 -10 9 -15z m68 -31 c-9 -9 -15 -9 -24 0 -9 9 -7 12 12 12 19 0
21 -3 12 -12z m83 -60 c4 -16 3 -28 -1 -28 -18 0 -35 17 -39 39 -4 20 -2 21
12 9 15 -11 16 -11 9 7 -5 13 -4 17 3 10 5 -5 13 -22 16 -37z m1973 -415 c-1
-247 -4 -496 -6 -555 l-3 -108 -60 0 c-32 0 -59 3 -59 8 0 4 17 14 38 23 l39
16 2 509 c2 502 3 509 23 532 12 12 23 22 25 22 2 0 3 -201 1 -447z m-1091
385 c-3 -7 -5 -2 -5 12 0 14 2 19 5 13 2 -7 2 -19 0 -25z m398 -644 c-57 -351
-110 -669 -116 -707 -6 -37 -17 -74 -26 -82 -8 -8 -11 -19 -8 -25 3 -5 1 -10
-5 -10 -16 0 -10 55 44 382 25 153 71 439 101 635 82 529 74 489 97 466 19
-19 17 -28 -87 -659z m-1203 581 c0 -5 -5 -11 -10 -13 -5 -1 -9 4 -9 13 0 9 4
14 9 13 5 -2 10 -8 10 -13z m-32 -5 c0 -5 -2 -10 -4 -10 -3 0 -8 5 -11 10 -3
6 -1 10 4 10 6 0 11 -4 11 -10z m155 -128 c-3 -3 -11 0 -18 7 -9 10 -8 11 6 5
10 -3 15 -9 12 -12z m65 -11 c0 -17 -18 -21 -24 -6 -3 9 0 15 9 15 8 0 15 -4
15 -9z m-170 -26 c35 -18 39 -25 9 -18 -20 6 -21 3 -15 -23 9 -35 4 -30 50
-49 25 -11 35 -12 30 -4 -5 9 -2 10 10 6 14 -5 17 -3 12 8 -3 8 -1 15 3 15 10
0 21 -25 21 -48 0 -15 -2 -15 -10 -2 -9 13 -12 13 -24 -3 -14 -18 -16 -18 -40
-2 -14 10 -26 21 -26 26 0 5 -9 9 -20 9 -24 0 -48 49 -29 60 8 6 8 9 0 14 -11
7 -15 26 -6 26 4 0 19 -7 35 -15z m2927 -91 c-3 -4 -14 -3 -24 0 -15 6 -15 8
-3 16 16 10 39 -4 27 -16z m-2882 -57 c23 -16 31 -27 24 -34 -7 -7 -5 -14 6
-23 8 -7 15 -18 15 -24 0 -6 -5 -3 -11 7 -5 9 -16 17 -24 17 -20 0 -55 40 -55
62 0 23 4 23 45 -5z m15 -89 c0 -16 -3 -19 -11 -11 -6 6 -8 16 -5 22 11 17 16
13 16 -11z m-240 -128 c0 -5 -4 -10 -10 -10 -5 0 -10 5 -10 10 0 6 5 10 10 10
6 0 10 -4 10 -10z m1880 -673 c0 -210 -2 -243 -17 -259 -9 -10 -20 -18 -25
-18 -4 0 -8 124 -8 275 l0 275 25 -16 25 -16 0 -241z m1310 233 l25 -20 -57 2
c-78 2 -80 28 -3 36 6 1 21 -7 35 -18z"/>
<path d="M5513 7338 c-49 -62 -92 -117 -95 -123 -8 -14 -62 -494 -56 -500 3
-3 32 -9 64 -13 53 -6 59 -9 62 -32 3 -30 -73 -708 -80 -715 -3 -3 -36 -13
-74 -23 l-69 -18 -29 -248 c-15 -136 -26 -250 -23 -253 3 -2 319 -38 703 -79
553 -59 699 -72 706 -62 4 7 8 28 8 47 l0 34 68 -7 c63 -6 231 -25 402 -46 41
-5 78 -6 81 -2 5 6 60 550 59 589 0 7 -7 10 -15 7 -8 -4 -60 -1 -115 6 -84 10
-100 15 -100 30 0 12 -10 20 -31 24 -48 9 -119 7 -119 -4 0 -20 -73 -11 -97
12 -23 22 -25 22 -139 9 -64 -7 -117 -11 -119 -9 -3 2 53 23 124 46 l128 42 6
90 c4 49 10 115 13 146 l7 56 46 -6 c42 -6 62 0 238 75 l192 82 5 36 c3 20 13
128 22 241 8 113 19 237 24 275 14 106 15 102 -32 108 -63 8 -503 84 -589 101
-41 9 -157 29 -259 46 -102 17 -314 54 -472 82 -158 29 -290 49 -294 46 -3 -4
-17 -105 -29 -224 -22 -202 -25 -219 -47 -236 -16 -12 -24 -13 -26 -5 -1 7 10
119 26 250 15 130 25 237 21 237 -4 0 -47 -51 -96 -112z m238 -585 c-31 -290
-85 -747 -97 -826 l-6 -39 -52 7 c-68 9 -78 21 -28 35 48 12 37 -42 92 460 57
513 58 521 82 547 12 13 23 21 26 19 2 -3 -6 -94 -17 -203z m986 -270 c-3 -3
-11 -2 -17 2 -9 6 -9 10 1 16 14 8 27 -7 16 -18z m-1257 -555 c7 -17 2 -87
-18 -245 -26 -208 -29 -224 -51 -240 l-24 -16 6 39 c3 21 16 139 28 262 17
168 26 222 36 222 7 0 18 -10 23 -22z m1265 -138 c18 -20 17 -20 -21 -20 -21
0 -46 5 -54 10 -13 9 -13 11 0 20 24 16 56 12 75 -10z"/>
<path d="M875 7083 c-4 -31 -9 -61 -11 -68 -3 -7 15 -19 43 -30 26 -10 57 -24
68 -32 19 -12 18 -13 -8 -13 -15 0 -27 5 -27 12 0 22 -14 -3 -16 -27 -1 -21 4
-25 30 -25 28 -1 29 -2 13 -14 -16 -13 -16 -15 -2 -30 9 -9 23 -16 32 -16 10
0 14 -6 10 -19 -3 -12 1 -22 9 -25 8 -3 14 -1 14 5 0 5 6 4 14 -3 13 -11 13
-14 0 -24 -13 -10 -13 -12 2 -18 22 -9 24 -8 24 9 0 8 5 15 11 15 5 0 8 -4 5
-8 -2 -4 4 -13 15 -20 11 -7 19 -8 19 -2 0 5 5 10 11 10 5 0 7 -4 4 -10 -3 -5
2 -10 12 -11 13 0 12 -3 -7 -10 -14 -6 -33 -8 -42 -5 -13 3 -18 -2 -18 -15 0
-20 28 -39 48 -32 10 4 18 -27 14 -58 -1 -8 90 -44 101 -41 5 1 6 -2 2 -8 -3
-5 1 -13 9 -16 9 -3 16 -15 16 -25 0 -10 6 -19 13 -19 6 -1 1 -7 -13 -15 -20
-11 -21 -14 -7 -15 10 0 16 -4 13 -9 -3 -5 1 -11 9 -15 8 -3 15 0 15 5 0 6 9
9 20 6 13 -3 20 0 20 9 0 8 8 14 18 14 26 0 64 -29 55 -43 -4 -7 0 -7 10 1 22
18 35 8 29 -23 -5 -29 -17 -32 -30 -9 -8 14 -10 14 -16 -2 -4 -11 -2 -20 3
-22 6 -2 11 -10 11 -18 0 -11 6 -11 27 -3 33 12 73 4 73 -16 0 -8 -6 -15 -14
-15 -7 0 -16 -9 -19 -20 -3 -13 0 -20 10 -20 10 0 13 -6 9 -16 -3 -9 -6 -22
-6 -30 0 -7 -6 -11 -14 -8 -8 3 -17 0 -22 -7 -4 -8 -3 -10 4 -5 8 4 11 -3 9
-24 -1 -16 -8 -30 -14 -30 -7 0 -13 -12 -13 -26 0 -14 -4 -23 -9 -20 -13 9
-41 -4 -41 -19 0 -7 -10 -11 -26 -9 -19 2 -27 -4 -35 -24 -8 -20 -7 -28 5 -34
22 -13 9 -35 -24 -40 -16 -2 -27 -1 -25 3 3 4 -1 9 -8 12 -7 3 -13 -6 -14 -24
-2 -32 11 -37 37 -14 16 14 17 14 13 -10 -3 -14 -9 -25 -14 -25 -13 0 -11 -28
1 -32 14 -4 16 -32 6 -80 l-7 -37 36 6 c21 3 35 2 35 -5 0 -5 15 -15 33 -22
l32 -11 -22 -18 c-12 -10 -27 -37 -34 -60 -8 -27 -15 -37 -20 -29 -4 7 -3 15
3 19 7 5 7 8 0 13 -15 9 -32 -26 -37 -76 -3 -29 -11 -48 -25 -57 -11 -7 -20
-20 -20 -28 0 -7 -7 -16 -15 -19 -15 -6 -16 -29 -2 -50 4 -7 0 -14 -8 -18 -8
-3 -15 -1 -15 4 0 6 -11 10 -25 10 -14 0 -25 5 -25 11 0 7 -9 9 -22 6 -13 -3
-33 -8 -45 -10 -17 -4 -20 -2 -16 10 5 13 3 13 -14 3 -16 -10 -64 -1 -288 55
-149 37 -271 69 -273 70 -1 1 9 53 23 115 14 62 25 125 24 139 l0 26 -10 -24
c-5 -13 -21 -74 -34 -135 -14 -61 -28 -119 -31 -128 -6 -20 -11 -18 476 -145
345 -90 370 -95 460 -93 93 1 131 4 159 11 10 3 17 -9 23 -39 11 -51 5 -48
217 -102 86 -21 223 -57 305 -79 l149 -41 56 28 56 27 42 185 c23 102 44 194
47 206 5 18 -1 22 -48 33 -30 7 -59 17 -64 24 -10 13 -81 234 -89 277 -4 22 2
28 41 48 66 32 132 96 172 169 50 89 67 161 61 258 -4 72 -10 91 -56 182 -42
82 -56 100 -71 96 -14 -4 -27 9 -54 51 -60 94 -179 173 -336 224 -72 23 -395
89 -595 122 -71 11 -164 27 -205 35 -100 19 -360 65 -370 65 -4 0 -11 -25 -15
-57z m220 -43 c-2 -11 1 -22 6 -25 5 -4 -6 -20 -26 -38 -38 -33 -45 -57 -17
-57 14 0 15 -2 2 -10 -8 -5 -10 -10 -5 -10 14 -1 -37 -29 -52 -30 -7 0 -13 7
-13 15 0 10 10 15 28 15 24 1 25 2 10 14 -14 10 -15 15 -5 25 9 10 8 11 -8 5
-19 -6 -19 -6 -2 8 17 13 17 15 3 27 -8 7 -33 15 -56 18 -32 5 -40 10 -40 27
0 15 3 17 9 8 4 -8 10 -13 12 -11 7 4 84 -24 90 -34 4 -6 9 -5 13 1 3 6 -3 13
-14 17 -11 3 -20 13 -20 21 0 12 4 12 21 4 25 -14 49 -6 49 15 0 8 4 15 9 15
6 0 8 -9 6 -20z m211 -191 c12 -21 -24 -7 -56 22 l-35 30 43 -21 c23 -12 45
-26 48 -31z m28 26 c3 -8 1 -15 -3 -15 -5 0 -11 7 -15 15 -3 8 -1 15 3 15 5 0
11 -7 15 -15z m-174 -90 c0 -5 -5 -3 -10 5 -5 8 -10 20 -10 25 0 6 5 3 10 -5
5 -8 10 -19 10 -25z m55 -7 c19 -4 19 -4 -3 -10 -16 -5 -25 -1 -34 15 -9 19
-9 20 3 11 8 -7 23 -14 34 -16z m142 16 c-3 -3 -12 -4 -19 -1 -8 3 -5 6 6 6
11 1 17 -2 13 -5z m-97 -24 c0 -5 -2 -10 -4 -10 -3 0 -8 5 -11 10 -3 6 -1 10
4 10 6 0 11 -4 11 -10z m175 -18 c-3 -3 -11 0 -18 7 -9 10 -8 11 6 5 10 -3 15
-9 12 -12z m-178 -52 c-1 -16 -6 -30 -12 -30 -5 0 -3 -5 5 -10 13 -8 13 -10 1
-10 -25 0 1 -18 34 -23 52 -8 115 -31 115 -42 0 -21 -16 -32 -40 -29 -14 1
-29 3 -34 3 -5 1 -7 4 -3 7 8 8 -16 33 -26 27 -4 -3 -14 1 -22 7 -8 7 -22 10
-30 6 -9 -3 -18 1 -21 9 -3 7 -19 17 -35 20 -16 4 -32 11 -35 16 -8 14 5 26
14 13 5 -7 14 -7 29 1 13 7 20 15 15 20 -4 4 1 5 11 2 11 -4 16 -3 12 4 -9 13
1 39 14 39 6 0 9 -13 8 -30z m-147 0 c0 -5 -4 -10 -10 -10 -5 0 -10 5 -10 10
0 6 5 10 10 10 6 0 10 -4 10 -10z m194 -12 c-6 -10 -4 -10 8 0 13 10 16 9 21
-8 7 -26 -19 -26 -53 0 l-25 20 28 0 c20 0 26 -4 21 -12z m106 -60 c0 -17 -23
-19 -41 -2 -28 25 -23 34 11 21 17 -6 30 -15 30 -19z m23 12 c3 -11 1 -18 -4
-14 -5 3 -9 12 -9 20 0 20 7 17 13 -6z m-113 6 c0 -9 -30 -14 -35 -6 -4 6 3
10 14 10 12 0 21 -2 21 -4z m387 -52 c-3 -3 -12 -4 -19 -1 -8 3 -5 6 6 6 11 1
17 -2 13 -5z m-420 -46 c-3 -8 -6 -5 -6 6 -1 11 2 17 5 13 3 -3 4 -12 1 -19z
m137 -4 c3 -8 2 -12 -4 -9 -6 3 -10 10 -10 16 0 14 7 11 14 -7z m31 -4 c3 -5
1 -10 -4 -10 -6 0 -11 5 -11 10 0 6 2 10 4 10 3 0 8 -4 11 -10z m1048 -27 c8
-43 -3 -133 -24 -187 -45 -118 -58 -100 -30 41 12 59 21 123 21 141 0 40 25
44 33 5z m-1033 -18 c0 -8 -9 -15 -20 -15 -20 0 -26 11 -13 23 12 13 33 7 33
-8z m107 -161 c-3 -3 -12 -4 -19 -1 -8 3 -5 6 6 6 11 1 17 -2 13 -5z m2 -288
c-11 -11 -19 -27 -19 -35 -1 -10 -7 -5 -16 12 -18 34 -13 44 24 44 29 0 29 -1
11 -21z m35 -17 c-3 -5 -10 -7 -15 -4 -5 4 -9 1 -9 -5 0 -6 -5 -8 -10 -5 -16
10 8 35 26 28 7 -3 11 -9 8 -14z m-14 -39 c0 -5 -4 -10 -10 -10 -5 0 -10 5
-10 10 0 6 5 10 10 10 6 0 10 -4 10 -10z m8 -53 c-7 -8 -20 -12 -30 -9 -25 6
-12 22 18 22 20 0 23 -2 12 -13z m2 -128 c0 -5 -8 -9 -17 -8 -11 0 -13 3 -5 6
6 2 9 10 6 15 -4 7 -2 8 4 4 7 -4 12 -11 12 -17z m38 -20 c-2 -6 -7 -10 -11
-10 -4 1 -15 1 -24 2 -15 0 -15 2 2 9 28 12 37 12 33 -1z m62 -9 c0 -5 -5 -10
-11 -10 -5 0 -7 5 -4 10 3 6 8 10 11 10 2 0 4 -4 4 -10z m562 -169 c8 -11 39
-24 78 -33 47 -10 64 -18 61 -29 -2 -8 -21 -88 -42 -179 -49 -205 -47 -200
-65 -200 -18 0 -19 -10 21 164 20 83 38 161 40 173 4 19 -1 23 -50 34 -62 14
-60 12 -70 57 -7 36 6 43 27 13z"/>
<path d="M4453 7013 c15 -79 49 -374 43 -380 -3 -4 -13 0 -22 8 -10 11 -21 71
-36 195 -11 98 -22 181 -24 183 -2 2 -77 -10 -166 -28 -90 -17 -203 -38 -253
-46 -49 -8 -132 -24 -184 -34 -52 -11 -100 -17 -108 -14 -8 3 -13 -2 -13 -16
0 -25 -17 -27 -49 -5 -18 13 -27 14 -44 5 -20 -10 -147 -37 -357 -75 -169 -31
-197 -36 -309 -56 -63 -11 -117 -22 -119 -25 -3 -3 0 -35 6 -72 13 -78 18
-110 27 -171 6 -50 22 -70 50 -67 29 2 66 25 60 36 -8 12 -2 11 30 -5 17 -9
22 -16 13 -19 -10 -4 -10 -8 2 -16 10 -7 11 -11 3 -11 -7 0 -13 -8 -12 -17 0
-11 3 -13 6 -5 2 6 9 12 14 12 6 0 7 -4 4 -10 -3 -5 -1 -10 6 -10 6 0 9 8 6
19 -3 12 1 22 11 26 18 7 29 -3 34 -30 3 -17 -3 -20 -48 -23 -48 -3 -52 -1
-58 22 -6 23 -9 24 -59 19 -55 -6 -69 -16 -65 -47 2 -13 19 -25 56 -37 51 -17
52 -17 52 2 0 14 7 19 29 19 16 0 36 2 44 5 7 3 25 -4 38 -15 13 -12 18 -18
10 -14 -9 5 -12 3 -7 -4 4 -7 18 -12 32 -12 13 0 24 -5 24 -11 0 -6 -7 -9 -15
-5 -8 3 -15 3 -15 0 0 -3 14 -10 31 -16 27 -9 29 -12 15 -20 -11 -6 -22 -6
-29 1 -9 7 -13 5 -13 -10 0 -14 5 -19 18 -16 11 3 18 0 18 -8 0 -12 13 -14 63
-6 4 0 7 7 7 14 0 8 10 13 22 13 16 -1 23 5 23 19 0 11 -4 23 -10 27 -14 10 2
21 21 14 9 -3 14 -12 10 -21 -7 -18 10 -20 18 -2 3 6 4 3 3 -8 -2 -17 3 -20
31 -17 17 1 32 -2 32 -8 0 -5 -15 -10 -32 -11 l-33 0 40 -20 c22 -11 32 -17
23 -15 -10 3 -20 1 -23 -4 -4 -6 14 -11 42 -12 86 -3 147 2 154 13 12 20 39
-94 32 -136 -4 -27 -3 -36 5 -31 8 5 12 -3 12 -23 0 -17 -4 -31 -9 -31 -5 0
-12 -11 -15 -25 -4 -16 -13 -25 -26 -25 -27 0 -34 -18 -8 -22 38 -5 33 -27 -5
-22 -32 4 -35 2 -29 -19 3 -12 10 -25 16 -29 8 -5 7 -8 -1 -8 -7 0 -13 -10
-13 -21 0 -19 4 -20 36 -14 24 4 34 3 29 -4 -3 -6 5 -15 19 -21 30 -11 46 -38
46 -79 0 -34 11 -39 30 -16 14 17 100 21 100 5 0 -5 -9 -15 -20 -22 -11 -7
-20 -16 -20 -21 0 -4 5 -5 10 -2 6 3 10 -3 10 -14 0 -12 -7 -21 -16 -21 -8 0
-12 -5 -9 -10 4 -6 1 -18 -6 -26 -10 -12 -8 -22 10 -54 19 -34 20 -40 6 -53
-8 -9 -15 -27 -15 -40 0 -14 -6 -27 -12 -30 -9 -3 -6 -11 9 -24 25 -23 21 -33
-14 -33 -13 0 -22 -4 -19 -9 3 -5 -1 -12 -10 -15 -22 -9 -24 -8 -18 9 4 9 0
15 -10 15 -9 0 -16 -7 -16 -16 0 -8 -4 -12 -10 -9 -5 3 -10 2 -10 -3 0 -5 -26
-12 -57 -15 -32 -3 -130 -15 -218 -26 -259 -33 -310 -39 -314 -35 -2 2 -7 18
-11 36 -7 30 -8 28 -9 -19 -1 -37 3 -53 12 -53 7 0 48 4 92 10 44 5 229 26
412 45 182 19 343 39 356 44 14 5 33 8 43 5 11 -2 102 4 204 15 102 11 298 31
435 46 253 26 343 44 365 70 9 11 7 56 -13 211 -14 108 -28 198 -31 201 -3 3
-17 1 -33 -4 -33 -11 -33 0 -2 -252 11 -90 17 -166 14 -169 -16 -16 -28 29
-46 164 -30 232 -22 210 -74 206 -47 -4 -56 5 -30 32 17 16 34 -5 -255 316
-41 45 -78 89 -83 96 -5 8 20 52 69 121 43 59 82 111 87 114 5 4 36 12 69 18
52 11 58 14 53 34 -2 12 -14 101 -26 197 -11 96 -25 183 -30 193 -17 31 -100
147 -106 147 -3 0 -3 -12 0 -27z m-1573 -520 c0 -22 -2 -25 -10 -13 -13 20
-13 40 0 40 6 0 10 -12 10 -27z m724 -388 c-6 -16 -24 -21 -24 -7 0 11 11 22
21 22 5 0 6 -7 3 -15z m-94 -299 c0 -3 -4 -8 -10 -11 -5 -3 -10 -1 -10 4 0 6
5 11 10 11 6 0 10 -2 10 -4z m373 -161 c-7 -21 -13 -19 -13 6 0 11 4 18 10 14
5 -3 7 -12 3 -20z"/>
<path d="M7752 6995 c0 -16 2 -22 5 -12 2 9 2 23 0 30 -3 6 -5 -1 -5 -18z"/>
<path d="M850 6958 c0 -8 13 -13 29 -13 17 0 36 6 43 13 10 10 4 12 -30 12
-27 0 -42 -4 -42 -12z"/>
<path d="M7762 6945 c-1 -11 5 -49 12 -85 8 -36 14 -56 14 -45 1 11 -5 49 -12
85 -8 36 -14 56 -14 45z"/>
<path d="M900 6870 c0 -5 5 -10 10 -10 6 0 10 5 10 10 0 6 -4 10 -10 10 -5 0
-10 -4 -10 -10z"/>
<path d="M790 6775 c-15 -18 -18 -14 44 -53 45 -29 50 -30 72 -15 23 15 33 57
17 66 -5 3 -33 8 -64 11 -44 6 -58 4 -69 -9z"/>
<path d="M7792 6770 c0 -14 4 -38 8 -55 7 -27 8 -27 8 -5 0 14 -4 39 -8 55 -7
27 -8 27 -8 5z"/>
<path d="M1060 6669 c0 -5 5 -7 10 -4 6 3 10 8 10 11 0 2 -4 4 -10 4 -5 0 -10
-5 -10 -11z"/>
<path d="M7812 6655 c0 -16 2 -22 5 -12 2 9 2 23 0 30 -3 6 -5 -1 -5 -18z"/>
<path d="M1050 6586 c0 -2 14 -9 31 -15 27 -9 30 -9 19 4 -11 13 -50 22 -50
11z"/>
<path d="M1360 6460 c0 -5 5 -10 10 -10 6 0 10 5 10 10 0 6 -4 10 -10 10 -5 0
-10 -4 -10 -10z"/>
<path d="M1277 6429 c7 -7 15 -10 18 -7 3 3 -2 9 -12 12 -14 6 -15 5 -6 -5z"/>
<path d="M1376 6403 c-6 -14 -5 -15 5 -6 7 7 10 15 7 18 -3 3 -9 -2 -12 -12z"/>
<path d="M1300 6398 c0 -11 12 -10 30 2 12 7 10 9 -8 7 -12 0 -22 -5 -22 -9z"/>
<path d="M1433 6353 c-15 -5 -17 -23 -4 -23 5 0 11 7 15 15 3 8 4 15 3 14 -1
0 -8 -3 -14 -6z"/>
<path d="M1305 6320 c-3 -5 -1 -10 4 -10 6 0 11 5 11 10 0 6 -2 10 -4 10 -3 0
-8 -4 -11 -10z"/>
<path d="M3202 6180 c-9 -16 -23 -30 -29 -30 -16 0 -17 12 -3 26 7 7 0 9 -22
6 -34 -5 -48 -17 -48 -42 1 -18 38 -65 46 -57 6 6 -16 48 -31 59 -5 4 1 8 14
8 18 0 22 -4 18 -20 -6 -24 -1 -25 19 -5 11 11 26 13 53 9 24 -4 41 -2 45 5 8
13 46 15 46 2 0 -4 11 -6 25 -3 14 2 25 9 25 14 0 6 -7 7 -16 4 -10 -4 -29 5
-50 24 -44 38 -70 38 -92 0z m91 -17 c-7 -2 -19 -2 -25 0 -7 3 -2 5 12 5 14 0
19 -2 13 -5z"/>
<path d="M3373 6158 c-2 -5 2 -8 10 -8 7 0 20 -11 27 -25 7 -13 17 -22 21 -19
5 3 6 -1 3 -9 -3 -9 3 -16 15 -20 13 -3 19 -1 15 5 -4 5 3 8 16 6 13 -2 25 3
28 11 3 8 0 11 -7 7 -7 -4 -10 0 -9 11 4 45 0 48 -58 48 -31 0 -58 -3 -61 -7z"/>
<path d="M3270 6129 c0 -5 5 -7 10 -4 6 3 10 8 10 11 0 2 -4 4 -10 4 -5 0 -10
-5 -10 -11z"/>
<path d="M3350 6130 c-22 -7 -21 -8 13 -9 23 -1 36 3 32 9 -7 11 -10 11 -45 0z"/>
<path d="M3406 6075 c10 -8 26 -14 34 -15 8 0 2 7 -14 15 -36 19 -45 19 -20 0z"/>
<path d="M3518 6053 c7 -3 16 -2 19 1 4 3 -2 6 -13 5 -11 0 -14 -3 -6 -6z"/>
<path d="M3405 6041 c-3 -5 -1 -12 5 -16 5 -3 10 1 10 9 0 18 -6 21 -15 7z"/>
<path d="M3506 6023 c-6 -14 -5 -15 5 -6 7 7 10 15 7 18 -3 3 -9 -2 -12 -12z"/>
<path d="M695 5970 c27 -12 35 -12 35 0 0 6 -12 10 -27 9 -25 0 -26 -1 -8 -9z"/>
<path d="M3327 5952 c-3 -4 8 -7 24 -7 16 -1 29 3 29 7 0 10 -47 11 -53 0z"/>
<path d="M3428 5903 c7 -3 16 -2 19 1 4 3 -2 6 -13 5 -11 0 -14 -3 -6 -6z"/>
<path d="M3380 5870 c0 -5 7 -10 15 -10 8 0 15 5 15 10 0 6 -7 10 -15 10 -8 0
-15 -4 -15 -10z"/>
<path d="M1145 5500 c-3 -5 1 -10 10 -10 9 0 13 5 10 10 -3 6 -8 10 -10 10 -2
0 -7 -4 -10 -10z"/>
<path d="M5453 5221 l-71 -66 -22 -209 c-24 -227 -24 -226 32 -226 44 0 58
-10 58 -42 0 -38 -59 -619 -65 -635 -10 -30 -34 1 -41 53 -5 44 -9 54 -23 50
-9 -3 -80 -15 -158 -26 -78 -11 -163 -24 -189 -29 -35 -7 -53 -6 -68 4 -18 11
-27 11 -61 -5 -123 -58 -179 -80 -187 -72 -7 7 -52 192 -63 259 -2 12 -8 37
-14 55 -16 53 -43 207 -38 226 2 9 8 -2 12 -26 9 -48 21 -61 38 -39 7 9 31 40
55 71 38 48 42 57 32 77 -7 12 -23 88 -35 168 -13 80 -27 164 -30 187 l-7 40
-171 -22 c-199 -25 -445 -57 -635 -80 -73 -9 -134 -20 -136 -23 -2 -3 12 -91
31 -196 28 -157 32 -193 22 -212 -7 -13 -15 -23 -19 -23 -4 0 -21 89 -39 198
-18 108 -35 208 -39 222 -5 23 -7 22 -17 -15 l-12 -40 -94 3 c-52 2 -193 10
-313 18 -120 8 -220 13 -222 12 -1 -2 -7 -48 -13 -103 -7 -55 -22 -143 -33
-195 l-22 -95 -6 50 c-8 64 -92 237 -128 265 -15 11 -51 44 -80 73 -45 44 -51
47 -39 22 48 -101 50 -105 37 -120 -16 -20 -18 -18 -60 63 l-35 67 -90 7 c-49
3 -173 11 -275 17 -102 6 -222 14 -267 18 l-81 6 -4 -72 c-2 -53 1 -76 12 -86
12 -13 12 -15 -3 -15 -11 0 -17 -8 -17 -24 0 -18 4 -23 18 -20 22 6 50 -35 32
-46 -9 -6 -8 -15 5 -36 9 -16 14 -21 11 -11 -7 23 -1 22 45 -10 38 -28 49 -43
29 -43 -5 0 -10 -4 -10 -10 0 -12 22 -9 32 4 4 6 16 5 30 -2 13 -7 15 -10 6
-8 -26 8 -22 1 15 -24 17 -12 23 -19 13 -16 -16 6 -17 4 -6 -9 8 -10 9 -15 1
-15 -6 0 -11 -16 -11 -36 0 -25 -3 -33 -12 -28 -8 4 -10 3 -5 -2 5 -5 25 -14
45 -20 34 -11 35 -12 10 -13 -32 -1 -35 -8 -11 -28 13 -10 15 -16 6 -19 -18
-8 -16 -34 2 -34 8 0 15 -4 15 -10 0 -13 37 -13 45 0 3 5 12 7 20 3 8 -3 23
-2 32 1 15 6 15 8 3 16 -9 6 -10 10 -3 10 25 0 43 -13 43 -32 0 -11 10 -28 23
-39 12 -10 16 -18 10 -19 -23 0 -14 -20 10 -20 12 0 29 -5 37 -10 12 -8 11
-10 -7 -10 -41 0 -76 19 -68 37 3 10 3 14 -1 10 -4 -4 -13 -2 -21 4 -10 9 -17
8 -28 -1 -10 -9 -15 -9 -15 -1 0 6 5 11 10 11 6 0 10 5 10 10 0 20 -47 10 -70
-15 -16 -17 -27 -22 -34 -15 -7 7 -4 15 9 24 19 13 18 14 -8 13 -15 -1 -27 -5
-27 -9 0 -3 -9 -4 -20 -1 -11 3 -20 1 -20 -5 0 -6 9 -14 20 -17 11 -3 20 -13
20 -22 0 -11 6 -14 25 -9 14 4 25 2 25 -4 0 -5 10 -10 23 -10 12 0 33 -10 47
-21 l25 -21 -27 5 c-18 3 -25 0 -20 -7 4 -6 7 -15 7 -20 0 -5 6 -11 13 -14 14
-4 32 36 24 58 -3 10 -2 12 6 5 16 -14 20 -51 13 -120 -5 -51 -9 -60 -26 -60
-11 0 -23 4 -26 8 -4 5 -15 7 -25 5 -17 -4 -16 -6 6 -16 37 -16 60 -37 60 -53
0 -8 -9 -29 -20 -47 -23 -38 -25 -46 -8 -36 7 4 4 -2 -7 -13 -11 -10 -28 -22
-38 -26 -10 -4 -15 -12 -11 -18 5 -8 9 -8 14 1 4 7 13 9 20 5 9 -6 9 -9 -1
-16 -12 -7 -12 -9 0 -9 7 0 11 -6 7 -15 -3 -8 -1 -15 4 -15 6 0 10 -29 10 -65
l0 -65 24 11 c28 13 136 3 136 -12 0 -5 -14 -18 -31 -28 -17 -10 -26 -20 -20
-22 7 -3 8 -23 4 -59 -3 -30 -8 -49 -11 -42 -3 10 -9 10 -27 -2 -18 -12 -25
-12 -28 -3 -3 6 -6 -1 -6 -18 -1 -50 14 -61 32 -23 12 26 17 29 22 16 4 -9 5
-29 3 -45 -3 -24 -7 -28 -31 -25 -26 3 -27 1 -17 -18 9 -17 8 -20 -7 -20 -26
-1 -76 -47 -67 -63 5 -9 4 -9 -6 0 -7 6 -19 9 -26 6 -8 -3 -14 -1 -14 4 0 5
-11 9 -24 9 -14 0 -23 -3 -20 -7 2 -4 0 -10 -6 -14 -5 -3 -10 -1 -10 6 0 8 -4
8 -13 1 -16 -14 -42 1 -33 19 4 8 1 6 -7 -4 -14 -17 -22 -18 -157 -3 -79 9
-146 16 -151 16 -5 0 -9 15 -9 33 0 24 -3 28 -10 17 -11 -18 -13 -80 -2 -80 4
0 50 -6 102 -14 52 -8 195 -26 316 -41 l222 -27 107 21 c59 12 109 21 110 21
2 0 7 36 11 80 3 44 10 80 14 80 4 0 32 -55 62 -122 l56 -123 43 -8 c24 -4
161 -23 304 -41 l259 -33 43 30 c35 25 43 37 48 71 9 65 53 455 86 761 16 154
32 290 34 302 5 21 10 21 120 20 l114 -1 10 -46 c29 -141 103 -591 98 -602 -2
-7 -28 -22 -56 -33 -31 -12 -51 -26 -51 -35 0 -8 16 -105 35 -215 19 -110 35
-204 35 -208 0 -4 15 -5 33 -2 47 8 878 156 1272 226 187 34 341 63 343 64 2
2 -1 26 -6 54 -5 28 -7 53 -3 55 6 3 284 -19 611 -48 96 -9 186 -16 201 -16
l25 0 18 188 c10 103 20 195 23 205 4 16 1 18 -17 12 -12 -4 -46 -4 -76 0 -44
5 -54 10 -54 26 0 12 7 19 18 19 14 0 18 6 15 28 -3 22 42 498 63 663 l6 46
67 27 67 27 18 192 c10 106 20 199 22 208 4 13 -5 18 -38 22 -75 9 -380 57
-463 71 -154 28 -384 60 -390 55 -3 -3 -12 -77 -20 -165 -19 -205 -21 -217
-45 -232 -26 -16 -26 -18 1 221 11 104 19 192 17 196 -2 5 -35 -21 -75 -58z
m217 -378 c-1 -10 -39 -376 -72 -677 l-23 -218 -71 6 -71 7 -17 -148 c-19
-168 -34 -243 -47 -243 -5 0 -9 7 -9 16 0 24 30 345 36 381 l5 32 69 -2 70 -3
5 30 c2 17 14 128 25 246 39 400 57 550 70 565 13 16 30 20 30 8z m-3587 -10
c-7 -2 -21 -2 -30 0 -10 3 -4 5 12 5 17 0 24 -2 18 -5z m-133 -63 c0 -5 -4
-10 -10 -10 -5 0 -10 5 -10 10 0 6 5 10 10 10 6 0 10 -4 10 -10z m23 -67 c-7
-2 -19 -2 -25 0 -7 3 -2 5 12 5 14 0 19 -2 13 -5z m1616 -247 c1 -48 1 -49
-19 -31 -19 18 -20 61 -3 135 6 22 7 21 14 -15 4 -22 8 -62 8 -89z m316 -76
c65 -364 125 -727 125 -752 0 -24 -4 -28 -29 -28 -16 0 -43 -3 -60 -6 -26 -5
-30 -4 -25 9 3 9 19 19 35 22 16 4 31 10 33 13 2 4 -3 41 -11 82 -7 41 -40
233 -73 425 -55 328 -57 352 -42 375 19 30 16 38 47 -140z m-1538 144 c-3 -3
-12 -4 -19 -1 -8 3 -5 6 6 6 11 1 17 -2 13 -5z m-267 -64 c0 -5 -2 -10 -4 -10
-3 0 -8 5 -11 10 -3 6 -1 10 4 10 6 0 11 -4 11 -10z m70 -20 c0 -5 -7 -10 -15
-10 -8 0 -15 5 -15 10 0 6 7 10 15 10 8 0 15 -4 15 -10z m1274 -18 c6 -17 -26
-331 -79 -772 -14 -113 -31 -268 -40 -344 -8 -77 -20 -145 -26 -152 -6 -7 -7
-19 -3 -26 5 -10 4 -10 -6 -1 -11 10 -7 64 18 300 38 342 102 970 102 995 0
23 27 23 34 0z m-433 -25 c-8 -8 -11 -7 -11 4 0 20 13 34 18 19 3 -7 -1 -17
-7 -23z m-774 -7 c10 -26 9 -30 -7 -30 -10 0 -20 9 -23 20 -3 11 -1 20 5 20 5
0 6 5 3 10 -3 6 -2 10 2 10 5 0 14 -13 20 -30z m78 -91 c-10 -15 -25 -10 -19
6 4 8 10 12 15 9 5 -3 7 -10 4 -15z m158 -129 c-3 -11 -7 -20 -9 -20 -2 0 -4
9 -4 20 0 11 4 20 9 20 5 0 7 -9 4 -20z m-153 -12 c0 -10 3 -9 9 1 6 9 11 10
15 2 4 -6 2 -11 -3 -11 -6 0 -10 -11 -9 -25 1 -14 6 -25 11 -25 4 0 2 -6 -5
-14 -11 -12 -14 -11 -21 6 -4 11 -5 24 -2 29 3 5 1 18 -5 29 -7 13 -7 20 0 20
5 0 10 -6 10 -12z m119 -88 c0 -11 -2 -12 -6 -2 -4 10 -9 7 -20 -8 l-15 -21
-19 20 c-24 25 -24 30 0 24 10 -2 25 2 32 10 15 16 29 5 28 -23z m-51 -42 c14
-4 17 -13 14 -47 -2 -22 -9 -41 -14 -41 -6 0 -8 9 -5 20 3 11 -1 23 -7 28 -7
4 -19 18 -26 31 -10 19 -10 25 1 32 9 5 15 4 17 -5 2 -8 11 -16 20 -18z m42
-69 c0 -6 -4 -7 -10 -4 -5 3 -10 11 -10 16 0 6 5 7 10 4 6 -3 10 -11 10 -16z
m2550 -169 c8 -5 12 -11 9 -14 -3 -3 -59 -15 -125 -26 -65 -11 -131 -23 -146
-26 -21 -4 -28 -2 -28 10 0 8 4 18 10 21 13 8 171 35 179 31 3 -2 15 0 26 5
27 11 57 11 75 -1z m-1099 -196 c19 -23 78 -394 67 -418 -6 -10 -13 -14 -18
-10 -7 9 -80 397 -80 428 0 21 14 20 31 0z"/>
<path d="M6610 5011 c0 -5 5 -13 10 -16 6 -3 10 -2 10 4 0 5 -4 13 -10 16 -5
3 -10 2 -10 -4z"/>
<path d="M830 4924 c-196 -34 -378 -124 -510 -250 -175 -168 -265 -362 -277
-604 -12 -230 46 -384 219 -585 171 -198 308 -284 532 -331 278 -59 618 9 836
167 l40 29 -52 73 c-28 39 -62 83 -74 97 l-23 25 52 28 c69 35 157 113 157
138 0 12 7 19 18 19 19 0 66 70 102 152 22 50 52 288 44 343 -25 155 -67 238
-189 380 -113 131 -185 193 -281 240 -131 65 -188 77 -389 80 -99 2 -191 1
-205 -1z m500 -345 c44 -11 108 -38 142 -59 59 -35 64 -41 85 -101 41 -119 27
-288 -35 -403 -27 -50 -138 -173 -148 -163 -3 2 22 108 55 235 34 127 61 236
61 244 0 7 -23 41 -52 76 l-52 62 -112 0 -112 0 -22 -35 -22 -36 -43 40 c-57
52 -130 69 -230 52 -241 -40 -407 -273 -392 -551 6 -111 24 -151 122 -268 97
-114 148 -143 264 -150 106 -6 178 16 238 71 l45 41 37 -42 c20 -23 51 -48 70
-55 40 -17 37 -20 -60 -47 -53 -16 -113 -24 -213 -27 -202 -8 -315 16 -449 94
-67 40 -89 70 -119 168 -29 90 -31 258 -4 355 76 278 302 473 601 520 91 14
253 4 345 -21z m-280 -391 c0 -2 -13 -53 -30 -115 -41 -156 -88 -223 -169
-239 -30 -6 -31 -6 -31 32 1 143 115 322 208 324 12 0 22 -1 22 -2z"/>
<path d="M6577 4882 c-9 -10 -17 -22 -17 -25 0 -4 25 -24 57 -43 51 -33 57
-35 68 -20 7 9 17 16 23 16 14 0 26 44 18 65 -4 11 -20 15 -55 15 -27 0 -56 2
-63 5 -8 3 -22 -3 -31 -13z"/>
<path d="M6812 4780 c14 -22 24 -19 15 5 -4 8 -11 15 -17 15 -6 0 -6 -7 2 -20z"/>
<path d="M1821 4561 c-9 -17 -4 -23 42 -49 44 -26 54 -28 63 -16 6 8 17 14 23
14 8 0 11 12 9 33 -3 32 -3 32 -65 35 -53 2 -63 0 -72 -17z"/>
<path d="M6804 4504 c3 -9 6 -20 6 -25 0 -5 4 -9 9 -9 4 0 6 11 3 25 -2 14 -9
25 -14 25 -6 0 -7 -7 -4 -16z"/>
<path d="M2043 4486 c7 -14 13 -23 15 -21 7 6 -9 45 -18 45 -4 0 -3 -11 3 -24z"/>
<path d="M6820 4436 c7 -7 14 -6 21 1 9 9 7 12 -9 10 -14 -1 -18 -5 -12 -11z"/>
<path d="M6871 4434 c0 -11 3 -14 6 -6 3 7 2 16 -1 19 -3 4 -6 -2 -5 -13z"/>
<path d="M6930 4421 c0 -6 4 -13 10 -16 6 -3 7 1 4 9 -7 18 -14 21 -14 7z"/>
<path d="M6971 4403 c10 -11 10 -14 2 -9 -7 4 -13 2 -13 -3 0 -6 4 -11 10 -11
5 0 9 -10 7 -21 -1 -12 5 -24 13 -27 12 -4 13 -2 3 9 -9 11 -7 19 7 36 9 12
20 19 24 16 3 -4 6 -2 6 4 0 18 -13 23 -28 10 -13 -9 -14 -9 -8 1 5 8 0 12
-15 12 -19 0 -20 -2 -8 -17z"/>
<path d="M2067 4363 c-4 -3 -7 -11 -7 -17 0 -6 5 -5 12 2 6 6 9 14 7 17 -3 3
-9 2 -12 -2z"/>
<path d="M2044 4244 c3 -9 6 -18 6 -20 0 -2 4 -4 9 -4 5 0 7 9 4 20 -3 11 -10
20 -15 20 -6 0 -7 -7 -4 -16z"/>
<path d="M6927 4254 c-3 -3 -1 -12 6 -19 9 -9 14 -9 24 1 7 7 13 15 13 18 0 8
-35 8 -43 0z"/>
<path d="M6933 4138 c2 -7 0 -21 -5 -32 -8 -14 -7 -17 4 -14 16 6 24 58 8 58
-6 0 -10 -6 -7 -12z"/>
<path d="M2198 4117 c7 -8 8 -18 4 -22 -4 -5 -1 -5 6 -1 17 10 15 23 -4 30
-13 5 -14 4 -6 -7z"/>
<path d="M2190 3989 c0 -5 5 -7 10 -4 6 3 10 8 10 11 0 2 -4 4 -10 4 -5 0 -10
-5 -10 -11z"/>
<path d="M2173 3920 c-1 -11 2 -20 8 -20 5 0 9 9 9 20 0 11 -4 20 -8 20 -4 0
-8 -9 -9 -20z"/>
<path d="M6471 3926 c12 -10 79 -16 79 -6 0 5 -19 10 -42 10 -23 0 -39 -2 -37
-4z"/>
<path d="M1800 3730 c0 -5 12 -10 26 -10 14 0 23 4 19 10 -3 6 -15 10 -26 10
-10 0 -19 -4 -19 -10z"/>
<path d="M6757 3493 c-4 -3 -7 -11 -7 -17 0 -6 5 -5 12 2 6 6 9 14 7 17 -3 3
-9 2 -12 -2z"/>
</g>
</svg>
