<?xml version="1.0" standalone="no"?>
<!DOCTYPE svg PUBLIC "-//W3C//DTD SVG 20010904//EN"
 "http://www.w3.org/TR/2001/REC-SVG-20010904/DTD/svg10.dtd">
<svg version="1.0" xmlns="http://www.w3.org/2000/svg"
 width="1080.000000pt" height="1173.000000pt" viewBox="0 0 1080.000000 1173.000000"
 preserveAspectRatio="xMidYMid meet">

<g transform="translate(0.000000,1173.000000) scale(0.100000,-0.100000)"
fill="#000000" stroke="none">
<path d="M5507 8608 c-18 -29 -62 -99 -97 -155 -36 -57 -68 -103 -71 -103 -4
0 -19 25 -35 55 -16 30 -31 55 -34 55 -3 0 -4 -141 -2 -312 l3 -313 -30 29
-31 30 0 269 0 270 -102 -6 c-307 -20 -843 -49 -905 -51 -71 -1 -72 -1 -75
-29 l-3 -28 -54 40 -53 40 -27 -19 c-21 -16 -57 -21 -201 -30 -96 -6 -240 -15
-320 -20 -80 -5 -242 -14 -360 -20 -118 -6 -230 -13 -247 -16 l-33 -5 0 -104
c0 -73 4 -105 13 -108 9 -4 9 -8 -2 -15 -10 -7 -11 -21 -5 -53 4 -24 7 -70 6
-101 -1 -43 2 -58 12 -58 18 0 14 -29 -5 -41 -12 -7 -11 -9 2 -9 9 0 22 7 29
15 7 8 22 15 34 15 17 0 18 -2 6 -10 -12 -8 -12 -10 5 -11 30 -2 -21 -17 -62
-18 -19 -1 -36 -8 -42 -18 -8 -14 -10 -1 -11 50 0 75 -22 122 -86 183 -19 17
-34 36 -34 43 0 6 -6 11 -13 11 -8 0 -31 25 -52 55 -38 55 -49 63 -60 45 -12
-19 -38 -10 -69 26 -64 76 -228 166 -360 199 -119 29 -291 44 -451 39 -143 -4
-408 -16 -1140 -53 l-330 -16 -3 -85 c-3 -95 2 -128 20 -127 40 1 100 -6 83
-10 -11 -3 -25 -9 -32 -15 -6 -5 -22 -6 -36 -3 -21 6 -25 3 -29 -24 -5 -35 0
-37 28 -16 25 19 40 19 24 0 -16 -19 -11 -19 34 0 20 8 36 20 36 26 0 5 -6 7
-12 3 -9 -5 -9 -2 1 9 17 21 35 21 67 0 16 -10 50 -18 86 -19 33 -1 62 -5 64
-8 2 -3 1 -4 -2 -1 -4 2 -14 0 -23 -4 -9 -5 -43 -4 -82 3 -69 14 -96 9 -119
-20 -14 -16 -13 -17 3 -11 9 3 17 2 17 -3 0 -6 -7 -10 -16 -10 -8 0 -12 -5 -9
-10 4 -6 15 -8 25 -5 10 3 33 8 51 10 19 3 45 7 59 10 14 2 39 7 55 11 l30 5
-29 -20 c-17 -11 -33 -18 -37 -15 -4 2 -9 -2 -12 -8 -3 -10 -7 -10 -19 0 -11
9 -18 10 -23 2 -4 -6 -12 -10 -18 -9 -31 4 -58 -2 -52 -11 3 -5 1 -10 -4 -10
-6 0 -11 5 -11 12 0 9 -3 9 -12 0 -9 -9 -9 -15 0 -24 9 -9 16 -8 30 5 10 9 25
17 33 17 9 0 5 -7 -10 -19 -20 -15 -21 -19 -7 -24 9 -4 16 -2 16 4 0 6 6 9 13
6 6 -2 11 -11 9 -18 -2 -11 1 -11 10 1 7 8 26 16 42 18 27 3 28 1 24 -27 -5
-33 -1 -35 67 -32 l30 2 -30 -28 c-17 -15 -25 -24 -18 -19 7 4 18 6 25 3 25
-9 33 -6 33 13 0 11 4 19 10 17 5 -1 9 -5 8 -9 -2 -5 6 -8 17 -8 11 0 20 -5
20 -12 0 -9 3 -9 12 0 9 9 9 15 0 24 -7 7 -12 16 -12 22 0 5 6 2 13 -9 10 -12
19 -15 28 -9 9 5 7 -3 -5 -21 -15 -23 -16 -27 -3 -17 9 8 20 11 26 8 5 -3 12
0 14 6 4 10 6 10 6 0 1 -8 -8 -16 -19 -19 -21 -6 -28 -23 -9 -23 5 0 7 -5 4
-11 -5 -6 -11 -4 -19 7 -9 11 -19 14 -35 9 -12 -4 -20 -9 -17 -12 3 -3 1 -14
-5 -24 -8 -15 -5 -20 17 -25 19 -5 29 -2 36 10 5 9 14 16 20 16 7 0 7 -4 1
-12 -17 -22 -12 -47 9 -43 23 5 36 -24 17 -36 -11 -7 -11 -9 -1 -9 9 0 11 -7
7 -22 -6 -22 -5 -22 9 -4 14 17 19 17 68 5 29 -7 67 -12 83 -11 17 1 25 -1 19
-4 -15 -7 6 -54 24 -54 7 0 24 -10 37 -22 19 -18 22 -26 14 -38 -9 -13 -10
-12 -5 2 7 24 -12 33 -32 14 -23 -20 -41 -7 -44 33 -1 18 -6 35 -11 38 -7 4
-2 -51 8 -84 2 -6 19 -14 37 -18 18 -4 45 -14 60 -21 23 -12 27 -12 22 0 -8
21 38 29 53 9 7 -9 16 -13 20 -10 3 4 0 13 -9 20 -9 6 -19 25 -22 40 -6 24 -4
28 11 24 10 -3 32 -8 50 -12 26 -5 33 -13 46 -51 8 -24 11 -44 8 -44 -8 0 -5
-59 3 -67 3 -4 6 3 6 15 0 28 16 37 23 12 3 -11 10 -20 16 -20 6 0 9 6 7 13
-1 6 -1 9 1 4 3 -4 17 2 33 13 42 30 90 24 90 -11 0 -14 -7 -19 -25 -19 -14 0
-25 -4 -25 -10 0 -5 3 -9 8 -9 19 3 25 -2 12 -11 -13 -9 -13 -11 0 -20 8 -5
20 -11 25 -13 6 -3 6 -8 1 -13 -5 -5 -11 -4 -13 4 -8 20 -22 14 -16 -8 3 -11
10 -20 15 -20 6 0 5 -6 -1 -14 -9 -11 -9 -20 -2 -35 14 -25 14 -44 0 -35 -6 3
-3 -8 6 -26 11 -21 12 -29 4 -24 -9 5 -11 2 -6 -9 4 -10 2 -17 -4 -17 -6 0 -9
9 -6 20 3 11 3 20 1 20 -2 0 -8 -9 -14 -20 -8 -14 -7 -26 1 -42 10 -18 9 -20
-6 -14 -16 6 -16 4 -4 -11 12 -14 12 -16 -1 -11 -20 7 -54 -17 -45 -31 3 -6 1
-11 -4 -11 -6 0 -11 5 -11 11 0 5 -5 7 -10 4 -6 -4 -7 -13 -1 -24 7 -13 5 -17
-10 -18 -11 -1 -17 2 -14 8 4 5 2 9 -4 9 -12 0 -24 -37 -16 -50 3 -5 -3 -10
-14 -10 -11 0 -23 -5 -27 -12 -5 -8 -2 -9 9 -5 9 3 19 2 22 -3 4 -6 17 -10 29
-10 18 0 24 -6 24 -25 0 -14 -5 -25 -10 -25 -5 0 -6 5 -2 12 5 7 3 8 -5 4 -7
-5 -10 -14 -8 -20 3 -7 1 -19 -5 -27 -8 -11 -9 -11 -5 3 8 24 -17 29 -32 6 -7
-11 -15 -17 -18 -14 -3 3 0 13 8 23 12 15 12 16 -3 10 -10 -3 -20 -2 -23 3 -3
4 1 10 7 13 7 3 3 4 -8 4 -15 -1 -20 -6 -16 -15 3 -10 0 -13 -9 -10 -8 3 -14
15 -13 26 0 12 -4 23 -10 25 -12 5 -14 -42 -3 -60 4 -6 16 -9 27 -6 14 4 20 0
20 -11 0 -9 -4 -16 -10 -16 -5 0 -10 -5 -10 -11 0 -7 19 -10 53 -7 47 3 53 1
49 -14 -2 -10 -11 -18 -19 -18 -10 0 -13 -6 -9 -16 3 -9 6 -20 6 -25 0 -6 4
-8 9 -5 11 7 33 -18 24 -27 -3 -4 -1 -7 5 -7 7 0 12 -27 14 -71 l3 -71 27 21
c30 24 68 28 68 7 0 -10 14 -16 45 -18 56 -4 60 -22 6 -26 -34 -3 -39 -6 -37
-26 0 -15 6 -22 14 -19 9 4 10 9 1 19 -9 11 -7 14 8 14 18 0 19 -5 13 -45 -7
-45 -20 -73 -20 -42 0 29 -18 19 -31 -18 -12 -33 -14 -34 -36 -20 -13 9 -23
11 -23 6 0 -5 8 -12 17 -15 13 -5 14 -9 5 -15 -9 -5 -7 -13 9 -27 13 -10 19
-13 14 -5 -6 10 -4 12 4 7 7 -5 10 -14 7 -22 -3 -8 -1 -26 4 -40 8 -21 6 -31
-12 -54 -14 -17 -29 -27 -38 -24 -12 4 -13 3 -2 -7 17 -18 15 -49 -3 -49 -8 0
-15 -9 -15 -19 0 -24 -16 -36 -23 -19 -3 7 -5 3 -4 -8 1 -20 3 -21 24 -7 21
14 23 14 17 0 -3 -8 -1 -18 5 -22 22 -13 11 -24 -15 -15 -16 7 -32 7 -44 0
-24 -13 -33 -13 -25 0 12 19 -27 23 -61 7 -23 -11 -32 -21 -28 -32 5 -12 -1
-15 -27 -14 -30 1 -31 2 -10 8 22 6 23 8 8 23 -9 8 -13 19 -9 23 4 5 1 5 -5 1
-7 -4 -13 -14 -13 -22 0 -8 -4 -14 -10 -14 -12 0 -13 27 -1 34 10 6 3 43 -9
51 -13 8 -11 -88 2 -97 13 -9 -720 -1 -779 8 l-31 5 -6 177 c-5 188 -8 228
-19 239 -4 3 -7 -99 -7 -229 l0 -235 178 -6 c97 -4 386 -12 642 -18 l465 -12
150 43 c82 25 157 52 166 61 15 15 18 12 46 -50 l30 -67 492 -13 492 -12 34
26 34 25 607 -6 c333 -3 611 -7 618 -9 6 -2 319 -8 696 -14 l685 -10 55 27
c54 27 55 28 58 75 l3 47 822 0 c687 0 857 3 1035 17 l212 17 0 111 c0 62 -3
248 -7 415 -5 242 -9 299 -18 286 -11 -14 -30 -16 -136 -14 -120 3 -124 4
-127 26 -3 20 -8 22 -75 22 -86 0 -117 -7 -117 -27 0 -12 -11 -14 -50 -10 -45
4 -74 17 -91 40 -3 4 -70 -8 -149 -27 -79 -19 -146 -33 -148 -31 -3 2 22 16
54 30 33 14 102 45 154 69 l95 43 -4 177 -4 176 60 0 c58 0 67 4 279 123 l219
124 0 106 c-1 556 -5 709 -19 698 -10 -8 -107 -5 -382 14 -338 24 -733 51
-1309 90 -121 8 -246 17 -277 20 l-58 6 0 -274 0 -273 -31 -30 -31 -29 4 318
c1 174 2 317 1 317 -1 0 -17 -24 -36 -52z m-4972 -335 c5 -17 2 -23 -10 -23
-9 0 -14 4 -10 9 3 5 -2 16 -10 24 -11 12 -12 17 -2 20 15 6 23 -2 32 -30z
m25 -39 c0 -2 -10 -12 -22 -23 -16 -16 -18 -21 -7 -25 38 -12 41 -16 12 -13
-25 3 -34 -1 -42 -20 -8 -18 -8 -23 4 -23 24 0 17 -16 -7 -18 -48 -4 -61 -3
-72 8 -8 8 -6 9 7 5 10 -4 17 -2 17 4 0 6 4 11 10 11 5 0 6 -7 3 -17 -4 -10
-2 -14 4 -10 19 12 23 47 5 47 -10 0 -23 4 -31 9 -11 7 -9 12 10 22 22 11 23
11 10 -4 -7 -10 -10 -17 -5 -17 10 1 51 30 43 31 -71 12 -87 18 -72 27 11 7
133 12 133 6z m57 0 c-3 -3 -12 -4 -19 -1 -8 3 -5 6 6 6 11 1 17 -2 13 -5z
m-307 -24 c0 -5 16 -10 36 -10 51 0 38 -24 -14 -27 -39 -3 -42 -1 -42 22 0 14
5 25 10 25 6 0 10 -4 10 -10z m100 -25 c-7 -9 -15 -13 -19 -10 -3 3 1 10 9 15
21 14 24 12 10 -5z m517 -71 c0 -8 -8 -14 -17 -14 -9 0 -16 8 -16 19 0 12 6
17 16 14 9 -3 17 -11 17 -19z m-377 6 c0 -5 -4 -10 -10 -10 -5 0 -10 5 -10 10
0 6 5 10 10 10 6 0 10 -4 10 -10z m277 -23 c79 -25 110 -44 53 -32 -34 7 -131
43 -139 51 -9 9 16 3 86 -19z m-167 -17 c0 -5 -7 -10 -16 -10 -8 0 -12 5 -9
10 3 6 10 10 16 10 5 0 9 -4 9 -10z m2305 -20 c3 -5 1 -10 -4 -10 -6 0 -11 5
-11 10 0 6 2 10 4 10 3 0 8 -4 11 -10z m2825 -641 c0 -354 -4 -646 -8 -650 -8
-9 -142 1 -142 10 0 3 20 14 45 24 l45 19 0 341 c0 188 3 457 7 597 5 235 7
257 26 282 11 15 22 26 24 24 2 -2 4 -293 3 -647z m-5100 621 c0 -5 -4 -10
-10 -10 -5 0 -10 5 -10 10 0 6 5 10 10 10 6 0 10 -4 10 -10z m2785 -18 c-3 -3
-11 0 -18 7 -9 10 -8 11 6 5 10 -3 15 -9 12 -12z m-2485 -11 c0 -8 -90 -4 -99
5 -2 2 19 4 47 4 29 0 52 -4 52 -9z m1693 -58 c25 -106 29 -162 17 -243 -13
-91 -18 -110 -32 -110 -5 0 -8 7 -4 15 3 8 1 15 -4 15 -6 0 -10 34 -10 78 0
98 -17 258 -30 281 -11 22 -4 31 26 31 19 0 24 -9 37 -67z m-1653 47 c13 -8
13 -10 -2 -10 -9 0 -20 5 -23 10 -8 13 5 13 25 0z m60 -10 c8 -5 11 -10 5 -10
-5 0 -17 5 -25 10 -8 5 -10 10 -5 10 6 0 17 -5 25 -10z m-384 -42 l16 -33 -26
27 c-28 29 -32 38 -16 38 5 0 17 -15 26 -32z m2189 22 c8 -12 -3 -50 -15 -50
-10 0 -21 40 -14 52 7 11 22 10 29 -2z m-2086 -26 c2 -2 -8 -4 -22 -4 -29 0
-34 -9 -14 -29 10 -10 9 -11 -5 -6 -10 4 -18 11 -18 15 0 5 -7 15 -15 23 -13
13 -9 14 28 10 23 -3 44 -7 46 -9z m41 -5 c0 -6 -4 -7 -10 -4 -5 3 -10 11 -10
16 0 6 5 7 10 4 6 -3 10 -11 10 -16z m100 -19 c0 -5 -2 -10 -4 -10 -3 0 -8 5
-11 10 -3 6 -1 10 4 10 6 0 11 -4 11 -10z m-80 -46 c0 -9 -6 -11 -17 -7 -17 7
-17 6 0 -20 9 -14 17 -32 17 -38 0 -7 8 -18 18 -26 15 -13 15 -13 -8 -7 -32 8
-15 -11 19 -21 18 -6 22 -4 15 6 -6 11 -4 11 10 0 12 -11 20 -11 28 -3 8 8 15
8 25 1 16 -14 126 -22 118 -9 -4 6 5 5 19 -2 26 -11 35 -28 16 -28 -5 0 -10 5
-10 10 0 6 -5 10 -11 10 -5 0 -7 -4 -4 -10 3 -5 1 -10 -4 -10 -15 0 -14 -27 2
-33 6 -2 0 -6 -15 -9 -16 -3 -28 -1 -28 5 0 6 -5 5 -13 -1 -16 -14 -32 -4 -41
26 -4 12 -14 22 -22 22 -8 0 -14 7 -14 15 0 13 -2 13 -14 3 -10 -9 -10 -15 -3
-20 19 -12 1 -19 -24 -9 -13 4 -34 5 -46 0 -13 -5 -25 -4 -28 1 -4 6 1 13 10
16 13 6 14 8 3 15 -7 5 -20 9 -28 9 -13 0 -13 -1 0 -10 11 -8 4 -10 -26 -8
-26 1 -41 6 -41 15 0 9 7 11 21 7 20 -6 20 -6 2 20 l-17 27 28 -15 c16 -8 35
-11 41 -7 8 5 -2 12 -28 21 -22 7 -48 22 -57 33 -17 18 -16 18 17 -2 19 -11
46 -21 59 -21 23 0 24 1 6 13 -23 17 -14 70 10 61 8 -4 15 -12 15 -20z m2055
6 c3 -5 -4 -6 -15 -3 -11 3 -22 9 -25 13 -3 5 4 6 15 3 11 -3 22 -9 25 -13z
m-2155 6 c0 -3 -4 -8 -10 -11 -5 -3 -10 -1 -10 4 0 6 5 11 10 11 6 0 10 -2 10
-4z m2242 -22 c11 -14 26 -23 33 -20 7 2 16 2 20 -2 3 -4 -9 -12 -27 -18 -23
-9 -27 -13 -13 -14 11 0 29 -8 40 -16 19 -15 19 -15 -8 -8 -15 3 -27 2 -26 -2
4 -22 -2 -34 -16 -34 -9 0 -15 9 -15 25 0 20 -5 25 -26 25 -19 0 -25 4 -22 18
2 9 10 17 18 17 26 0 35 27 14 42 -11 8 -13 13 -5 13 7 0 22 -12 33 -26z
m-2081 -16 c0 -10 2 -10 6 0 2 6 14 12 24 12 11 0 17 -5 14 -10 -7 -12 36 -30
88 -36 35 -5 51 8 25 20 -7 3 -2 3 12 -1 22 -5 23 -4 11 11 -12 14 -12 16 2
11 8 -4 17 -15 20 -26 3 -10 16 -23 29 -28 21 -9 21 -9 -8 -8 -21 1 -30 6 -27
15 3 6 0 12 -6 12 -6 0 -13 -11 -17 -25 -8 -31 -39 -33 -54 -5 -6 11 -16 18
-22 14 -5 -4 -13 -2 -17 3 -10 16 -74 26 -65 10 4 -6 -2 -4 -13 6 -11 9 -30
17 -44 18 -22 0 -23 1 -4 9 29 13 45 12 46 -2z m624 2 c4 -6 -10 -10 -34 -10
-23 0 -41 5 -41 10 0 6 15 10 34 10 19 0 38 -4 41 -10z m45 3 c0 -5 -5 -15
-10 -23 -8 -12 -10 -11 -10 8 0 12 5 22 10 22 6 0 10 -3 10 -7z m-830 -40 c0
-7 -39 17 -46 28 -3 6 5 3 20 -6 14 -10 26 -19 26 -22z m2350 12 c-7 -8 -17
-15 -22 -15 -11 0 14 29 26 30 5 0 3 -7 -4 -15z m-2460 -13 c0 -13 -12 -22
-22 -16 -10 6 -1 24 13 24 5 0 9 -4 9 -8z m77 -8 c-3 -3 -12 -4 -19 -1 -8 3
-5 6 6 6 11 1 17 -2 13 -5z m243 -22 c19 -7 27 -9 43 -11 6 -2 3 -6 -8 -10
-13 -5 -24 -3 -31 7 -7 9 -18 13 -28 9 -10 -4 -27 0 -39 8 -21 15 -21 15 13 9
19 -3 42 -8 50 -12z m2177 -7 c-7 -13 -12 -16 -15 -7 -2 8 -8 10 -15 4 -15
-12 -78 -21 -71 -10 3 4 17 8 32 9 15 0 21 3 15 6 -26 10 -12 21 26 20 36 -2
38 -4 28 -22z m428 15 l20 -9 -20 1 c-11 0 -31 4 -45 8 l-25 8 25 0 c14 0 34
-3 45 -8z m-2827 -23 c-8 -15 -12 -16 -24 -6 -13 10 -17 10 -24 0 -6 -10 -9
-10 -15 -1 -10 16 6 25 43 25 26 0 29 -2 20 -18z m2397 -36 c0 -8 -6 -15 -13
-17 -7 -1 -8 0 -2 3 23 11 8 21 -21 13 -16 -5 -37 -6 -45 -3 -8 3 -14 0 -14
-6 0 -8 -6 -9 -17 -3 -10 5 -24 7 -30 5 -7 -3 -13 0 -13 5 0 13 21 17 95 17
45 0 60 -4 60 -14z m-2168 -33 c-3 -8 -6 -5 -6 6 -1 11 2 17 5 13 3 -3 4 -12
1 -19z m176 10 c16 2 26 -2 22 -7 -3 -6 -13 -7 -22 -4 -12 5 -15 2 -10 -10 8
-22 5 -21 -21 2 -24 20 -30 37 -10 25 7 -5 25 -7 41 -6z m4322 -447 l0 -453
-76 -28 c-42 -15 -81 -25 -86 -21 -19 12 -366 516 -367 532 -1 9 58 81 131
161 l132 146 93 8 93 9 3 53 3 53 37 -3 37 -3 0 -454z m-2417 435 c33 6 73
-27 61 -49 -8 -14 -2 -17 41 -23 27 -4 50 -11 50 -16 0 -5 -13 -7 -30 -4 -30
4 -42 -8 -17 -17 9 -4 9 -8 -2 -15 -9 -7 -10 -12 -2 -16 6 -4 8 -13 4 -19 -4
-7 -8 -22 -8 -35 -1 -23 22 -35 70 -36 36 -2 21 -20 -18 -22 -40 -2 -87 -37
-67 -49 6 -3 10 -11 10 -17 0 -7 -5 -6 -14 1 -10 8 -16 9 -21 1 -4 -6 -3 -10
2 -9 4 1 16 -1 26 -6 17 -7 17 -8 0 -29 -10 -11 -11 -15 -3 -8 21 18 29 15 40
-14 10 -26 30 -29 38 -4 3 9 -1 11 -12 7 -11 -4 -15 -3 -11 4 4 5 1 17 -6 25
-6 8 -9 17 -6 21 4 3 2 12 -4 20 -9 11 -7 12 12 9 23 -4 28 -27 8 -34 -5 -2
-2 -10 6 -18 8 -9 19 -12 25 -9 5 3 10 -3 10 -14 0 -12 5 -21 10 -21 13 0 13
6 -1 31 -5 11 -14 17 -20 14 -5 -4 -9 -2 -9 3 0 16 54 21 70 7 11 -10 20 -11
33 -4 9 6 22 7 28 3 6 -3 38 -7 72 -8 35 -2 63 -8 65 -14 2 -7 13 -12 23 -12
11 0 29 -5 40 -10 14 -8 19 -7 19 1 0 20 27 -9 34 -36 3 -13 15 -27 26 -30 11
-3 20 -11 20 -17 0 -5 -6 -7 -12 -4 -7 3 -21 9 -31 12 -10 4 -16 12 -13 19 5
14 -31 28 -39 15 -6 -10 22 -40 36 -40 6 0 7 -4 4 -10 -3 -6 1 -7 9 -4 9 3 16
1 16 -6 0 -6 5 -8 10 -5 6 4 18 1 26 -6 12 -10 13 -9 8 5 -4 10 -1 16 7 16 10
0 10 3 1 12 -7 7 -12 16 -12 20 0 13 17 9 33 -6 13 -13 17 -12 36 10 20 24 20
24 1 24 -11 0 -20 -5 -20 -11 0 -5 -4 -7 -10 -4 -5 3 -10 11 -10 16 0 6 5 7
11 3 8 -5 10 3 7 25 -3 23 -1 31 11 31 13 1 12 3 -3 15 -20 15 -16 19 17 16 9
-1 20 5 23 14 10 24 24 -1 24 -42 0 -17 6 -33 13 -36 9 -3 9 -7 -2 -20 -8 -11
-9 -17 -3 -17 6 0 11 -15 10 -34 -1 -26 -5 -32 -18 -29 -9 2 -22 14 -29 25
-11 18 -11 20 3 15 9 -4 16 -2 16 3 0 14 -27 13 -36 -1 -3 -6 -1 -16 5 -22 18
-18 13 -30 -11 -24 -23 6 -23 6 -3 -9 11 -9 19 -20 17 -26 -6 -21 19 -38 39
-27 17 9 19 6 19 -30 0 -29 -5 -43 -19 -50 -10 -6 -22 -22 -25 -37 -5 -20 -10
-24 -18 -16 -8 8 -15 9 -25 1 -9 -9 -13 -8 -13 0 0 8 -5 7 -15 -3 -23 -22 -18
-36 14 -42 21 -4 29 -12 28 -25 -1 -13 -4 -15 -14 -7 -9 7 -13 7 -13 -2 0 -7
-11 -3 -26 9 -15 12 -31 21 -36 21 -9 0 -5 -34 8 -82 4 -13 0 -15 -18 -10 -20
5 -21 4 -8 -9 8 -9 24 -20 35 -27 17 -10 17 -11 3 -12 -9 0 -20 5 -23 10 -9
15 -22 12 -22 -5 0 -8 4 -12 9 -9 7 5 12 -10 9 -28 0 -5 4 -8 9 -8 6 0 10 4
10 9 0 5 9 7 20 4 11 -3 20 -1 20 5 0 6 8 9 18 7 9 -2 19 -4 21 -4 3 -1 -4 -8
-15 -17 -16 -13 -16 -15 -1 -10 9 3 17 3 17 -1 0 -3 -8 -12 -17 -19 -16 -11
-13 -12 21 -7 34 5 38 4 33 -10 -5 -12 -1 -17 13 -17 18 0 20 -7 20 -65 0 -69
3 -73 34 -50 22 17 156 21 156 6 0 -12 -49 -51 -65 -51 -10 0 -11 -14 -5 -55
1 -5 5 -1 10 10 7 16 9 13 9 -15 -1 -19 -3 -29 -6 -22 -2 6 -13 12 -22 12 -14
0 -17 -6 -14 -24 6 -28 -12 -43 -31 -27 -11 9 -13 6 -13 -14 0 -25 12 -40 32
-40 6 0 11 -7 11 -15 1 -8 3 -17 4 -20 14 -36 -19 -110 -48 -104 -7 1 -8 0 -2
-3 13 -6 13 -40 0 -48 -6 -4 -17 -2 -24 4 -9 8 -13 7 -13 -4 0 -8 4 -15 9 -15
4 0 8 -8 7 -17 0 -11 -3 -13 -6 -5 -2 6 -9 10 -13 7 -5 -3 -7 -12 -4 -20 4 -8
10 -12 15 -9 11 6 39 -14 39 -28 0 -5 -9 -4 -20 2 -14 8 -25 7 -40 -2 -15 -9
-23 -10 -28 -2 -4 6 -17 13 -29 16 -16 4 -24 1 -28 -13 -4 -11 -11 -17 -16
-14 -5 4 -9 -3 -9 -14 0 -27 -15 -27 -34 1 -9 12 -19 19 -23 15 -3 -4 2 -14
13 -22 11 -8 14 -15 7 -15 -7 0 -22 9 -34 21 -19 19 -20 19 -15 2 6 -17 -9
-18 -386 -15 -216 2 -394 4 -395 6 -11 11 -27 178 -30 324 l-4 172 -82 0 -82
1 -27 52 c-24 49 -25 53 -7 53 10 0 19 -4 19 -8 0 -4 6 -8 14 -8 8 0 16 -7 20
-15 7 -18 101 -21 112 -4 4 8 9 8 13 1 4 -6 48 -14 100 -18 l92 -7 -3 33 -3
33 -75 4 c-41 2 -80 10 -86 16 -6 7 -59 94 -118 194 l-107 182 83 83 c127 126
179 246 194 445 l7 92 36 -15 c63 -28 71 -28 71 -6 0 15 8 22 28 24 15 2 32 1
37 -3 6 -4 21 -5 33 -3z m-1871 -28 c-3 -8 -6 -5 -6 6 -1 11 2 17 5 13 3 -3 4
-12 1 -19z m-239 -23 c-1 -14 -6 -25 -11 -25 -5 0 -6 7 -3 16 3 9 6 20 6 25 0
5 2 9 5 9 3 0 4 -11 3 -25z m67 5 c3 -5 1 -10 -4 -10 -6 0 -11 5 -11 10 0 6 2
10 4 10 3 0 8 -4 11 -10z m2275 -6 c0 -2 -7 -4 -15 -4 -8 0 -15 4 -15 10 0 5
7 7 15 4 8 -4 15 -8 15 -10z m-2070 -19 c0 -20 -5 -25 -25 -25 -43 0 -27 34
23 49 1 1 2 -10 2 -24z m5795 5 c4 -6 -5 -10 -20 -10 -15 0 -24 4 -20 10 3 6
12 10 20 10 8 0 17 -4 20 -10z m-5988 -72 c-2 -13 -4 -5 -4 17 -1 22 1 32 4
23 2 -10 2 -28 0 -40z m2377 19 c6 -9 8 -19 4 -22 -8 -8 -42 13 -56 35 -10 16
-8 17 15 11 15 -4 31 -14 37 -24z m-2394 -8 c0 -6 -4 -7 -10 -4 -5 3 -10 11
-10 16 0 6 5 7 10 4 6 -3 10 -11 10 -16z m2215 -11 c18 -5 18 -6 -5 -15 -19
-8 -28 -8 -39 2 -16 16 -5 41 12 27 7 -6 21 -12 32 -14z m-2005 -23 c0 -19 -4
-35 -10 -35 -5 0 -10 5 -10 11 0 5 -4 8 -9 4 -6 -3 -15 3 -21 14 -8 16 -6 22
7 30 32 19 43 13 43 -24z m2183 -18 c-4 -6 0 -8 10 -4 9 3 17 1 19 -5 2 -6 14
-12 26 -13 16 -1 19 1 11 11 -8 10 -4 11 17 5 18 -5 28 -14 29 -28 1 -18 -2
-20 -22 -12 -32 12 -66 11 -58 -1 3 -5 14 -10 23 -10 9 0 28 -9 42 -20 l25
-21 -27 7 c-16 3 -28 2 -28 -4 0 -12 28 -24 40 -17 4 2 32 -3 61 -12 30 -9 66
-17 81 -17 14 -1 30 -5 35 -10 4 -5 -18 -5 -52 -1 -33 4 -85 8 -117 9 -31 0
-54 4 -51 9 2 4 -12 7 -31 7 -20 0 -36 4 -36 9 0 5 8 7 18 4 20 -5 50 23 37
35 -4 4 -10 1 -12 -5 -3 -9 -14 -6 -36 11 -18 13 -45 28 -62 33 -17 6 -31 18
-33 29 -2 14 -1 16 6 6 12 -18 57 -11 58 8 1 8 2 19 3 24 0 5 8 3 16 -4 8 -7
12 -17 8 -23z m-203 -31 c-14 -14 -24 0 -16 21 6 15 8 15 16 3 6 -9 5 -19 0
-24z m100 -16 c17 0 16 -4 -7 -40 -19 -28 -30 -37 -37 -30 -7 7 -7 17 2 30 6
11 13 32 13 47 1 17 3 21 6 11 2 -10 13 -18 23 -18z m-1842 -27 c-16 -2 -40
-2 -55 0 -16 2 -3 4 27 4 30 0 43 -2 28 -4z m1988 -90 c-3 -3 -12 -1 -19 5 -8
7 -18 8 -22 4 -5 -4 -5 -1 -1 6 5 9 12 9 27 1 12 -6 18 -13 15 -16z m88 -13
c-6 -6 -10 -2 -11 12 -2 16 1 18 10 9 7 -7 8 -14 1 -21z m42 8 c16 -18 17 -21
2 -15 -9 3 -19 1 -21 -6 -2 -7 -4 0 -4 16 -1 33 -1 32 23 5z m-2236 -59 c0 -6
-4 -7 -10 -4 -5 3 -10 11 -10 16 0 6 5 7 10 4 6 -3 10 -11 10 -16z m186 0 c19
-22 19 -22 -3 -8 -13 8 -23 17 -23 21 0 12 6 9 26 -13z m2101 -11 c-3 -8 -6
-5 -6 6 -1 11 2 17 5 13 3 -3 4 -12 1 -19z m236 -22 c-11 -14 -22 -21 -27 -16
-11 11 11 40 31 40 11 0 10 -5 -4 -24z m-2473 -47 c0 -6 -4 -7 -10 -4 -5 3
-10 11 -10 16 0 6 5 7 10 4 6 -3 10 -11 10 -16z m2485 1 c4 -6 11 -7 17 -4 7
4 8 2 4 -5 -6 -9 -12 -9 -24 1 -10 7 -19 14 -21 15 -2 2 1 3 7 3 6 0 14 -5 17
-10z m-85 -45 c0 -2 -7 -5 -15 -9 -9 -3 -15 0 -15 9 0 9 6 12 15 9 8 -4 15 -7
15 -9z m-2250 -94 c0 -6 -4 -13 -10 -16 -5 -3 -10 1 -10 9 0 9 5 16 10 16 6 0
10 -4 10 -9z m77 -7 c8 -21 -21 -51 -32 -33 -5 7 -4 10 3 5 16 -10 25 13 12
29 -9 11 -9 15 -1 15 6 0 14 -7 18 -16z m-139 -31 c-6 -7 -16 -13 -22 -12 -7
0 -6 2 2 6 6 2 10 9 6 14 -3 5 -2 14 2 20 4 8 9 7 15 -2 4 -8 3 -19 -3 -26z
m33 -7 c-6 -8 -9 -21 -5 -30 4 -10 1 -16 -9 -16 -23 0 -26 22 -5 45 11 11 14
21 8 23 -5 2 -7 8 -4 14 4 7 10 4 16 -6 6 -11 6 -22 -1 -30z m43 -27 c-15 -17
-15 -19 -2 -19 9 0 19 -7 22 -16 6 -15 4 -15 -10 -3 -15 12 -16 12 -10 -8 4
-12 2 -24 -5 -29 -7 -4 -10 -2 -7 7 3 8 -1 29 -8 48 -13 30 -12 37 2 60 l17
25 9 -23 c6 -18 4 -29 -8 -42z m60 -15 c3 -8 2 -12 -4 -9 -6 3 -10 10 -10 16
0 14 7 11 14 -7z m-12 -85 c-12 -5 -22 -16 -23 -26 0 -12 -2 -13 -6 -5 -4 10
-9 9 -19 -5 -13 -17 -14 -17 -7 1 4 13 3 17 -5 12 -8 -5 -10 -2 -6 8 3 9 10
13 15 10 5 -3 9 0 9 6 0 7 7 10 15 6 8 -3 15 -1 15 4 0 5 7 7 17 3 14 -5 13
-8 -5 -14z m2535 -41 c-3 -8 -6 -5 -6 6 -1 11 2 17 5 13 3 -3 4 -12 1 -19z
m-457 -8 c0 -5 -2 -10 -4 -10 -3 0 -8 5 -11 10 -3 6 -1 10 4 10 6 0 11 -4 11
-10z m-2100 -25 c0 -2 -7 -5 -15 -9 -9 -3 -15 0 -15 9 0 9 6 12 15 9 8 -4 15
-7 15 -9z m3979 -29 c19 -21 22 -31 17 -87 -2 -35 -5 -161 -6 -279 l-1 -215
-24 -18 -25 -18 0 321 c0 176 4 320 8 320 5 0 19 -11 31 -24z m1550 -15 c32
-25 13 -35 -49 -26 -70 10 -66 40 5 44 11 0 31 -8 44 -18z m-5498 -44 c-10 -9
-11 -8 -5 6 3 10 9 15 12 12 3 -3 0 -11 -7 -18z m2612 -20 c4 3 7 3 7 0 0 -3
-9 -11 -19 -16 -16 -9 -18 -8 -13 11 4 16 2 19 -8 13 -9 -6 -11 -4 -5 5 6 10
11 10 20 -3 7 -9 15 -14 18 -10z m-2574 -4 c-14 -16 -59 -18 -59 -2 0 6 7 9
15 6 8 -4 17 -3 19 2 3 4 12 8 20 8 12 0 13 -4 5 -14z m54 -8 c7 -17 1 -22
-35 -26 -15 -2 -26 1 -25 6 1 6 10 9 20 9 9 -1 17 5 17 12 0 19 16 18 23 -1z
m127 -5 c0 -5 -13 -10 -30 -10 -16 0 -30 4 -30 8 0 4 14 9 30 10 17 1 30 -2
30 -8z m2400 -20 c0 -5 -5 -10 -11 -10 -5 0 -7 5 -4 10 3 6 8 10 11 10 2 0 4
-4 4 -10z m-2580 -34 c0 -3 -4 -8 -10 -11 -5 -3 -10 -1 -10 4 0 6 5 11 10 11
6 0 10 -2 10 -4z m2546 -88 c4 -6 2 -14 -4 -16 -7 -2 -12 -11 -12 -20 0 -10
-3 -13 -10 -6 -10 10 -2 54 11 54 4 0 11 -5 15 -12z m-2826 -118 c0 -17 -2
-19 -14 -8 -14 13 -12 28 5 28 5 0 9 -9 9 -20z m2827 -27 c-3 -10 -5 -4 -5 12
0 17 2 24 5 18 2 -7 2 -21 0 -30z m-17 11 c0 -8 -4 -12 -10 -9 -5 3 -10 10
-10 16 0 5 5 9 10 9 6 0 10 -7 10 -16z m10 -208 c0 -3 -4 -8 -10 -11 -5 -3
-10 -1 -10 4 0 6 5 11 10 11 6 0 10 -2 10 -4z m-330 -60 c0 -3 -4 -8 -10 -11
-5 -3 -10 -1 -10 4 0 6 5 11 10 11 6 0 10 -2 10 -4z m1658 -98 c3 -62 -1 -68
-30 -41 -12 11 -18 30 -18 60 0 40 2 44 23 41 19 -3 22 -10 25 -60z m-4308 28
c0 -2 -9 -6 -20 -9 -11 -3 -18 -1 -14 4 5 9 34 13 34 5z m2563 -11 c-3 -9 -8
-14 -10 -11 -3 3 -2 9 2 15 9 16 15 13 8 -4z m-49 -3 c3 -5 -1 -9 -9 -9 -8 0
-12 4 -9 9 3 4 7 8 9 8 2 0 6 -4 9 -8z m123 -8 c-3 -3 -12 -4 -19 -1 -8 3 -5
6 6 6 11 1 17 -2 13 -5z"/>
<path d="M1060 7720 c-9 -6 -10 -10 -3 -10 6 0 15 5 18 10 8 12 4 12 -15 0z"/>
<path d="M3107 7403 c-4 -3 -7 -11 -7 -17 0 -6 5 -5 12 2 6 6 9 14 7 17 -3 3
-9 2 -12 -2z"/>
<path d="M3750 7339 c0 -5 5 -7 10 -4 6 3 10 8 10 11 0 2 -4 4 -10 4 -5 0 -10
-5 -10 -11z"/>
<path d="M3335 7294 c24 -24 80 -51 69 -32 -5 8 -2 9 9 5 11 -4 14 -2 10 9 -6
16 -23 19 -23 4 0 -5 -5 -10 -10 -10 -7 0 -7 6 0 20 9 17 8 20 -9 20 -14 0
-19 -5 -15 -15 8 -20 -5 -19 -30 2 l-21 17 20 -20z"/>
<path d="M3418 7303 c7 -3 16 -2 19 1 4 3 -2 6 -13 5 -11 0 -14 -3 -6 -6z"/>
<path d="M3501 7291 c-9 -6 -6 -10 11 -14 22 -6 22 -7 3 -22 -19 -16 -19 -16
3 -5 20 10 21 14 10 28 -7 9 -13 18 -13 19 0 1 -6 -2 -14 -6z"/>
<path d="M3390 7220 c8 -5 20 -10 25 -10 6 0 3 5 -5 10 -8 5 -19 10 -25 10 -5
0 -3 -5 5 -10z"/>
<path d="M3478 7213 c7 -3 16 -2 19 1 4 3 -2 6 -13 5 -11 0 -14 -3 -6 -6z"/>
<path d="M3465 7190 c3 -5 8 -10 11 -10 2 0 4 5 4 10 0 6 -5 10 -11 10 -5 0
-7 -4 -4 -10z"/>
<path d="M3577 7180 c3 -11 9 -17 14 -14 14 8 10 34 -5 34 -9 0 -12 -7 -9 -20z"/>
<path d="M3696 7165 c-9 -25 -7 -32 5 -15 9 12 10 11 6 -7 -4 -19 -3 -20 14
-10 10 6 19 18 19 25 0 7 -5 10 -11 6 -6 -3 -15 -1 -19 6 -5 8 -9 7 -14 -5z"/>
<path d="M3782 7106 c1 -13 6 -22 10 -20 11 7 10 32 -2 39 -6 3 -9 -4 -8 -19z"/>
<path d="M3755 7110 c-3 -5 -1 -10 4 -10 6 0 11 5 11 10 0 6 -2 10 -4 10 -3 0
-8 -4 -11 -10z"/>
<path d="M3427 7093 c-9 -9 16 -29 46 -37 19 -4 27 -3 27 6 0 9 3 9 10 -2 5
-8 13 -11 17 -6 4 4 -3 17 -16 27 -16 13 -28 16 -34 10 -6 -6 -17 -7 -27 -1
-10 5 -20 7 -23 3z"/>
<path d="M3543 7082 c-7 -4 -9 -13 -4 -21 6 -9 10 -7 14 8 3 12 4 21 4 21 -1
0 -7 -4 -14 -8z"/>
<path d="M3540 6988 c0 -13 22 -20 32 -10 6 6 17 8 26 5 10 -4 13 -2 8 5 -7
12 -66 12 -66 0z"/>
<path d="M3480 6953 c0 -7 8 -13 18 -13 15 0 15 -2 2 -10 -11 -8 -7 -9 15 -4
40 9 45 12 39 28 -7 18 -74 17 -74 -1z"/>
<path d="M3590 6940 c14 -10 27 -17 29 -15 8 8 -22 35 -38 35 -12 0 -10 -5 9
-20z"/>
<path d="M3555 6780 c5 -8 42 -6 50 1 2 3 -8 5 -25 5 -16 0 -27 -3 -25 -6z"/>
<path d="M3740 6710 c0 -5 5 -10 10 -10 6 0 10 5 10 10 0 6 -4 10 -10 10 -5 0
-10 -4 -10 -10z"/>
<path d="M3696 6664 c-4 -9 -4 -19 -1 -22 2 -3 7 3 11 12 4 9 4 19 1 22 -2 3
-7 -3 -11 -12z"/>
<path d="M3885 6300 c-3 -5 -1 -10 4 -10 6 0 11 5 11 10 0 6 -2 10 -4 10 -3 0
-8 -4 -11 -10z"/>
<path d="M3726 6207 c3 -10 9 -15 12 -12 3 3 0 11 -7 18 -10 9 -11 8 -5 -6z"/>
<path d="M3701 6194 c0 -11 3 -14 6 -6 3 7 2 16 -1 19 -3 4 -6 -2 -5 -13z"/>
<path d="M3694 6149 c-5 -8 -9 -25 -10 -39 -1 -14 0 -17 3 -7 2 9 11 17 19 17
16 0 18 9 5 29 -7 11 -10 11 -17 0z"/>
<path d="M3610 6130 c0 -5 5 -10 11 -10 5 0 7 5 4 10 -3 6 -8 10 -11 10 -2 0
-4 -4 -4 -10z"/>
<path d="M7811 8499 c-6 -46 -19 -173 -30 -283 -18 -187 -21 -200 -45 -224
-14 -14 -29 -23 -33 -19 -4 4 3 109 16 233 13 124 20 228 17 231 -3 4 -6 0 -6
-8 0 -8 -16 -158 -34 -334 -19 -176 -32 -323 -28 -326 4 -4 45 -11 92 -17 62
-8 88 -15 98 -29 7 -10 126 -195 263 -411 l251 -393 -7 -88 c-4 -48 -10 -103
-14 -122 l-7 -34 -81 3 -80 4 -6 -49 c-18 -147 -49 -464 -46 -467 9 -7 106
-14 116 -8 6 4 20 103 31 226 12 120 23 221 26 224 3 2 12 -1 20 -7 8 -7 36
-16 63 -21 l48 -8 -41 -1 -42 -1 -11 -97 c-7 -54 -18 -147 -25 -206 -7 -59 -9
-110 -5 -113 8 -4 444 -18 1003 -30 l288 -6 -23 -23 -24 -24 -520 10 c-286 6
-614 16 -730 23 -115 7 -213 11 -218 9 -4 -2 -6 -146 -5 -318 l2 -314 -24 -26
c-13 -14 -27 -25 -32 -25 -4 0 -8 149 -8 332 0 182 -3 328 -6 325 -4 -4 -14
-48 -23 -99 l-16 -93 -287 4 -287 3 2 -56 c1 -31 -1 -56 -4 -56 -14 0 -49 62
-49 89 0 57 -8 63 -46 33 -19 -15 -34 -30 -34 -33 0 -4 14 -12 31 -19 28 -12
95 -88 85 -97 -2 -2 -21 8 -42 22 -65 45 -194 102 -289 129 -300 84 -645 46
-971 -108 -141 -67 -240 -134 -348 -237 -81 -76 -88 -81 -112 -71 -23 11 -27
8 -87 -73 l-62 -85 -3 199 -2 199 -38 -5 c-34 -4 -211 6 -722 42 -113 8 -347
24 -520 35 -173 11 -436 29 -585 40 -148 11 -280 20 -292 20 l-23 0 0 -288 0
-288 -36 -35 -36 -34 7 339 c4 207 3 336 -2 333 -5 -3 -27 -34 -48 -69 -21
-35 -69 -110 -106 -168 l-67 -106 -4 -327 -3 -326 89 -3 89 -3 -2 -480 c-1
-264 -4 -481 -6 -484 -2 -2 -43 -17 -92 -35 l-88 -31 -3 -333 -2 -332 1027 0
c935 0 1050 2 1268 20 132 11 246 20 253 20 9 0 12 40 12 165 0 91 1 165 3
165 1 0 29 -25 62 -57 166 -157 369 -268 582 -318 149 -35 414 -65 583 -65
188 0 286 10 449 46 339 76 550 197 728 419 l32 40 1 -118 c0 -104 3 -123 23
-157 12 -22 27 -41 32 -43 6 -2 359 0 785 4 1498 16 1706 18 1843 18 l137 1 0
1350 0 1350 -22 0 c-153 1 -923 29 -990 36 l-58 7 0 -316 c0 -200 -4 -318 -10
-322 -7 -4 -10 96 -10 292 0 281 -1 300 -20 328 -22 33 -26 61 -10 67 10 3 39
224 40 297 0 29 -2 32 -15 21 -12 -10 -40 -11 -106 -7 -50 4 -94 9 -99 12 -4
2 -5 15 -3 29 5 23 7 24 86 20 l82 -4 -59 20 c-33 11 -61 22 -62 23 -2 1 3 60
10 131 13 120 15 130 44 159 16 18 147 174 291 347 l262 315 152 62 c83 33
153 65 154 70 3 11 63 582 63 602 0 12 -11 16 -43 18 -23 1 -130 13 -237 27
-107 15 -285 37 -395 51 -110 14 -215 27 -232 29 -18 3 -35 1 -37 -3 -3 -4
-15 -95 -26 -202 -11 -107 -23 -220 -27 -252 -5 -49 -10 -61 -36 -79 l-30 -22
7 80 c4 43 18 178 31 298 13 121 22 222 20 225 -3 2 -70 -39 -148 -93 l-143
-97 -28 -262 c-15 -144 -30 -276 -33 -294 -4 -28 -2 -32 26 -38 36 -8 38 -15
11 -40 -25 -23 -28 -21 -84 85 l-45 84 35 38 c19 21 34 46 34 56 0 21 25 284
40 413 11 97 6 134 -21 155 -8 6 -131 25 -274 43 -143 17 -411 51 -595 75
-184 24 -365 47 -401 51 l-67 7 -11 -83z m1680 -841 c-51 -49 -55 -27 -5 28
26 27 38 35 42 25 2 -8 -14 -31 -37 -53z m-275 -198 c7 -14 16 -36 21 -49 9
-25 10 -24 33 17 25 45 47 57 36 20 -4 -13 -10 -42 -13 -65 -6 -48 -15 -53
-37 -21 -13 18 -18 19 -31 8 -13 -11 -17 -7 -30 24 -9 21 -18 51 -22 68 -5 26
-3 29 13 26 10 -2 24 -14 30 -28z m-630 -537 c-2 -16 -13 -103 -22 -195 l-17
-168 -51 2 c-43 1 -45 2 -13 5 37 4 47 19 26 40 -8 8 -6 55 6 169 9 86 18 161
21 166 3 4 17 8 30 8 22 0 25 -3 20 -27z m-275 -1959 c0 -280 0 -616 0 -747
l-1 -239 -112 4 -113 3 -3 -306 c-2 -306 -2 -306 -26 -328 l-23 -21 -6 352
c-4 194 -4 354 -2 356 3 3 12 -1 21 -9 24 -19 174 -22 174 -3 0 8 7 17 15 20
13 5 15 92 15 692 l0 686 27 28 c14 15 28 26 30 24 2 -2 4 -232 4 -512z m1629
266 l0 -220 -35 0 c-40 0 -55 21 -37 51 8 12 12 74 12 176 0 157 0 157 27 185
15 15 28 28 30 28 2 0 3 -99 3 -220z m-6445 -647 c-4 -379 -10 -692 -15 -696
-10 -11 -150 3 -150 14 0 5 4 9 10 9 5 0 27 8 49 17 l39 17 3 637 4 637 24 26
c14 14 28 26 33 26 5 0 6 -294 3 -687z m4675 61 c0 -524 -1 -555 -17 -552 -16
3 -18 13 -14 73 3 68 2 69 -16 53 -17 -16 -26 -15 -153 13 -178 39 -171 36
-164 63 5 22 1 24 -103 45 -59 13 -175 38 -258 56 -82 18 -152 31 -154 29 -3
-2 6 -15 18 -28 21 -22 22 -30 16 -88 -8 -66 -28 -155 -45 -198 -12 -28 -64
-38 -55 -10 17 56 35 159 41 238 5 75 4 92 -7 92 -8 0 -79 -20 -159 -43 -162
-49 -157 -44 -159 -150 -1 -75 -27 -188 -57 -253 -27 -57 -99 -130 -139 -140
-37 -9 -78 12 -130 67 -73 78 -109 183 -121 357 -7 89 -8 92 -31 92 l-24 0 6
138 c6 138 25 384 30 390 1 2 11 -5 20 -15 18 -17 18 -17 12 9 -4 15 -3 29 2
32 5 3 14 28 21 56 11 44 15 50 44 56 38 7 128 -8 180 -30 92 -38 157 -117
184 -223 10 -38 21 -74 25 -80 6 -10 92 -13 375 -13 l367 0 180 110 180 110
-4 139 c-1 77 0 145 4 150 3 6 28 11 56 11 l49 0 0 -556z m1390 486 c0 -39 4
-52 18 -57 22 -8 52 -34 52 -45 0 -4 -19 -8 -43 -8 -38 0 -43 3 -43 22 1 20
-5 22 -64 25 -36 2 -71 6 -77 8 -14 5 -18 86 -6 98 3 4 42 7 85 7 l78 0 0 -50z
m-4752 -328 c2 -7 -6 -12 -17 -12 -21 0 -27 11 -14 24 9 9 26 2 31 -12z m528
-214 c-1 -117 3 -252 8 -300 8 -79 7 -88 -8 -88 -37 0 -67 155 -69 350 -1 162
-10 148 -27 -43 -9 -109 1 -334 16 -359 3 -4 63 -8 135 -8 99 0 129 -3 129
-13 0 -30 -25 -37 -126 -37 -127 0 -164 7 -164 30 0 21 -27 30 -97 30 -58 0
-107 -15 -98 -30 14 -23 -102 -13 -136 11 -15 10 -33 19 -41 19 -12 0 -233
-52 -283 -66 -54 -16 14 21 154 84 l155 69 0 189 1 189 55 -3 c52 -3 63 1 160
56 90 50 233 131 236 132 0 0 0 -96 0 -212z m4603 -348 c-1 -110 -6 -200 -10
-200 -8 0 -14 31 -10 53 1 4 -6 10 -14 13 -12 5 -15 31 -15 147 0 131 2 142
22 164 12 13 23 23 25 23 2 0 3 -90 2 -200z m-379 -25 l0 -116 -82 3 -83 3 -3
99 c-1 55 0 106 2 113 4 9 28 13 86 13 l80 0 0 -115z m351 -186 c40 -28 39
-54 -2 -45 -17 3 -40 6 -50 6 -13 0 -19 7 -19 23 0 43 25 49 71 16z m-181 -96
c0 -29 -4 -53 -10 -53 -6 0 -10 26 -10 58 0 32 -6 64 -12 72 -7 8 -3 6 10 -4
18 -15 22 -29 22 -73z m-2551 -7 c10 -12 3 -22 -41 -57 -60 -47 -114 -74 -173
-84 l-40 -7 35 37 c19 20 58 52 85 70 28 17 58 42 69 53 19 22 40 19 65 -12z
m-3933 -2 l24 -17 0 -301 c-1 -292 -2 -302 -22 -323 -12 -13 -25 -23 -30 -23
-4 0 -8 153 -8 340 0 187 2 340 5 340 3 0 17 -7 31 -16z m1659 -20 c34 -22 31
-34 -9 -34 -53 0 -96 11 -96 26 0 25 70 31 105 8z"/>
<path d="M7742 8485 c0 -16 2 -22 5 -12 2 9 2 23 0 30 -3 6 -5 -1 -5 -18z"/>
<path d="M287 7843 c-73 -4 -78 -6 -87 -29 -6 -14 -10 -29 -10 -33 0 -10 168
-70 175 -63 3 3 5 14 5 24 0 10 7 18 16 18 12 0 14 9 12 42 -3 48 3 46 -111
41z"/>
<path d="M592 7761 c-11 -7 -10 -10 3 -15 19 -7 35 0 35 15 0 11 -20 12 -38 0z"/>
<path d="M606 7631 c-4 -6 -1 -12 6 -12 7 -1 27 -3 43 -4 17 -2 41 -6 55 -11
24 -7 24 -7 7 10 -21 22 -101 34 -111 17z"/>
<path d="M736 7625 c4 -8 10 -15 15 -15 4 0 6 7 3 15 -4 8 -10 15 -15 15 -4 0
-6 -7 -3 -15z"/>
<path d="M666 7588 c3 -4 9 -8 15 -8 5 0 9 4 9 8 0 5 -7 9 -15 9 -8 0 -12 -4
-9 -9z"/>
<path d="M916 7583 c-6 -14 -5 -15 5 -6 7 7 10 15 7 18 -3 3 -9 -2 -12 -12z"/>
<path d="M707 7569 c7 -7 15 -10 18 -7 3 3 -2 9 -12 12 -14 6 -15 5 -6 -5z"/>
<path d="M625 7559 c-4 -6 -5 -12 -2 -15 2 -3 7 2 10 11 7 17 1 20 -8 4z"/>
<path d="M666 7556 c21 -15 30 -14 19 3 -3 6 -14 11 -23 11 -13 0 -13 -2 4
-14z"/>
<path d="M1073 7557 c-3 -6 -1 -7 6 -3 7 4 19 -2 30 -15 l19 -23 0 26 c0 20
-5 26 -24 26 -14 0 -27 -5 -31 -11z"/>
<path d="M740 7556 c0 -2 8 -10 18 -17 15 -13 16 -12 3 4 -13 16 -21 21 -21
13z"/>
<path d="M930 7516 c0 -2 8 -10 18 -17 15 -13 16 -12 3 4 -13 16 -21 21 -21
13z"/>
<path d="M1135 7491 c2 -11 -1 -21 -6 -21 -6 0 -7 -4 -4 -10 3 -5 11 -10 16
-10 10 0 8 45 -4 56 -3 4 -5 -3 -2 -15z"/>
<path d="M976 7492 c-6 -11 21 -25 33 -18 4 3 8 -5 8 -16 1 -12 7 -24 14 -28
8 -6 8 -9 -2 -13 -9 -3 -10 -6 -2 -6 6 -1 14 3 18 9 3 5 13 6 23 3 16 -6 16
-5 0 13 -9 10 -17 23 -16 27 0 5 -3 11 -6 15 -3 3 -6 -6 -6 -19 0 -18 -3 -20
-9 -10 -5 8 -7 20 -4 28 3 7 1 13 -5 13 -6 0 -17 3 -25 6 -8 3 -18 1 -21 -4z"/>
<path d="M620 7470 c0 -5 5 -10 10 -10 6 0 10 5 10 10 0 6 -4 10 -10 10 -5 0
-10 -4 -10 -10z"/>
<path d="M1066 7461 c-3 -5 1 -11 9 -14 9 -4 12 -1 8 9 -6 16 -10 17 -17 5z"/>
<path d="M992 7440 c0 -14 2 -19 5 -12 2 6 2 18 0 25 -3 6 -5 1 -5 -13z"/>
<path d="M1100 7436 c0 -2 7 -7 16 -10 8 -3 12 -2 9 4 -6 10 -25 14 -25 6z"/>
<path d="M1221 7421 c-16 -10 -6 -31 14 -31 8 0 12 6 9 14 -4 11 1 14 20 12
14 -2 26 1 26 5 0 12 -51 11 -69 0z"/>
<path d="M1016 7381 c-3 -5 2 -8 11 -7 11 0 19 -8 23 -24 3 -16 13 -26 27 -28
23 -3 27 1 36 38 6 24 4 25 -43 28 -27 1 -51 -2 -54 -7z m81 -31 c2 -24 -3
-25 -23 -6 -12 13 -12 15 4 19 9 3 17 5 17 6 1 0 1 -8 2 -19z"/>
<path d="M1215 7370 c3 -5 8 -10 11 -10 2 0 4 5 4 10 0 6 -5 10 -11 10 -5 0
-7 -4 -4 -10z"/>
<path d="M1070 7300 c0 -6 -4 -9 -8 -6 -5 3 -9 -1 -9 -9 0 -19 5 -19 23 -1 9
9 10 17 4 21 -5 3 -10 1 -10 -5z"/>
<path d="M1280 7266 c0 -2 8 -10 18 -17 15 -13 16 -12 3 4 -13 16 -21 21 -21
13z"/>
<path d="M1160 7210 c8 -5 22 -10 30 -10 13 0 13 1 0 10 -8 5 -22 10 -30 10
-13 0 -13 -1 0 -10z"/>
<path d="M1104 6995 c11 -8 22 -12 25 -9 6 6 -19 24 -34 24 -5 -1 -1 -7 9 -15z"/>
<path d="M1160 6952 c0 -5 14 -7 30 -4 17 2 30 6 30 8 0 2 -13 4 -30 4 -16 0
-30 -4 -30 -8z"/>
<path d="M1128 6833 c7 -3 16 -2 19 1 4 3 -2 6 -13 5 -11 0 -14 -3 -6 -6z"/>
<path d="M307 6670 c-72 -13 -69 -20 8 -20 59 0 66 2 55 15 -7 8 -13 14 -14
14 0 -1 -23 -5 -49 -9z"/>
<path d="M1117 6213 c-4 -3 -7 -11 -7 -17 0 -6 5 -5 12 2 6 6 9 14 7 17 -3 3
-9 2 -12 -2z"/>
<path d="M1242 6200 c0 -14 2 -19 5 -12 2 6 2 18 0 25 -3 6 -5 1 -5 -13z"/>
<path d="M1104 6144 c-4 -11 -9 -22 -11 -26 -4 -9 36 3 42 12 3 4 -2 13 -10
20 -12 10 -16 9 -21 -6z"/>
<path d="M985 6099 c-4 -6 -14 -8 -22 -5 -8 3 -11 1 -8 -4 10 -16 45 -12 45 5
0 18 -6 19 -15 4z"/>
<path d="M2560 5760 c-129 -4 -377 -10 -550 -14 -672 -14 -1152 -26 -1310 -31
-342 -12 -399 -14 -547 -14 l-153 -1 0 -114 c0 -126 -5 -117 67 -131 18 -4 33
-10 33 -15 0 -11 -49 -24 -79 -21 -15 2 -21 -1 -16 -8 3 -6 12 -9 18 -5 7 3 4
-1 -5 -9 -20 -16 -24 -32 -5 -20 25 16 47 14 40 -5 -3 -9 12 1 35 23 22 22 38
43 36 47 -3 4 5 5 17 3 13 -3 26 -10 31 -17 4 -7 8 -8 8 -3 0 6 3 6 8 0 4 -6
18 -16 32 -22 22 -10 20 -11 -25 -9 -27 0 -53 5 -56 10 -4 5 -12 5 -19 1 -9
-6 -9 -10 1 -17 11 -7 11 -11 2 -15 -7 -2 -13 -9 -13 -15 0 -6 8 -4 18 5 22
20 32 21 32 5 0 -6 -3 -9 -6 -6 -6 6 -44 -27 -44 -38 0 -3 17 -4 37 -2 30 2
39 8 44 28 l7 25 1 -24 c1 -16 5 -21 16 -17 9 3 15 0 15 -9 0 -9 -9 -15 -22
-15 -45 0 -67 -11 -63 -31 2 -11 0 -17 -6 -14 -5 4 -9 13 -9 21 0 8 -4 14 -10
14 -18 0 -11 -29 10 -40 24 -13 44 -4 36 16 -6 16 19 19 29 4 3 -5 2 -10 -3
-10 -6 0 -13 -7 -16 -15 -8 -21 36 -38 47 -19 12 20 26 17 38 -8 9 -22 9 -22
6 4 -3 19 0 25 11 21 9 -4 12 -15 8 -33 -3 -15 -2 -31 2 -35 10 -10 9 -29 -1
-36 -5 -4 -4 -10 2 -13 6 -4 11 -2 11 3 0 6 8 11 18 12 10 0 12 3 5 6 -23 9
-14 20 17 20 16 0 32 -7 34 -14 3 -8 2 -12 -2 -9 -4 2 -16 -2 -27 -10 -17 -13
-18 -16 -5 -24 23 -15 43 -12 36 5 -3 8 -1 15 4 15 14 0 22 -18 11 -25 -6 -3
-8 -12 -5 -19 3 -8 1 -17 -5 -21 -6 -3 -11 -12 -11 -18 0 -7 7 -3 15 7 16 21
45 31 45 15 0 -5 -7 -9 -15 -9 -8 0 -15 -8 -14 -17 0 -11 3 -13 6 -5 5 14 33
17 33 3 0 -5 -9 -13 -20 -16 -11 -3 -20 -10 -20 -13 0 -16 32 -52 46 -52 24 0
16 -17 -11 -24 -16 -4 -23 -11 -19 -18 4 -7 3 -8 -4 -4 -7 4 -12 2 -12 -5 0
-7 -9 -2 -20 11 -16 18 -20 19 -20 7 0 -21 36 -40 66 -34 14 2 27 0 31 -5 9
-15 -19 -28 -47 -22 -25 6 -25 6 -4 -9 11 -9 33 -19 47 -22 15 -4 27 -13 27
-20 0 -18 -28 -27 -49 -16 -9 5 -23 6 -29 2 -15 -9 -5 -41 12 -42 6 0 2 -4 -9
-9 -17 -7 -17 -9 -2 -9 9 -1 17 -5 17 -10 0 -13 27 -21 45 -15 8 4 15 16 16
28 0 19 1 19 10 -4 6 -13 14 -27 19 -30 5 -3 5 -12 0 -20 -7 -11 -11 -11 -24
-1 -19 16 -72 6 -86 -17 -5 -9 -10 -13 -10 -7 0 5 -7 -1 -16 -14 -15 -21 -15
-25 4 -49 11 -15 25 -26 31 -25 6 2 8 -3 5 -10 -3 -8 -12 -14 -20 -14 -8 0
-13 6 -10 14 3 7 1 13 -3 13 -5 0 -11 -7 -15 -15 -4 -13 -35 -15 -186 -15
l-180 0 0 -30 c0 -25 4 -30 33 -34 111 -17 287 -26 526 -26 244 0 275 2 286
17 7 10 19 14 29 10 15 -6 17 -35 16 -319 -1 -466 -3 -429 20 -435 11 -3 17
-9 14 -14 -3 -5 3 -9 13 -10 14 0 15 -2 3 -6 -8 -3 -21 -10 -28 -16 -17 -13
-52 -17 -52 -5 0 4 -42 8 -93 7 l-92 -1 2 -76 c2 -123 1 -116 18 -102 8 7 15
18 15 25 0 7 7 18 15 25 12 10 15 10 15 -4 0 -9 6 -16 13 -16 9 0 8 -3 -2 -9
-11 -7 -11 -9 0 -13 8 -3 5 -7 -9 -10 -15 -4 -20 -3 -15 5 4 7 -2 5 -12 -3
-18 -14 -17 -15 7 -18 13 -2 48 6 77 18 29 11 50 16 47 12 -3 -5 -26 -17 -51
-27 -74 -28 -45 -28 36 0 40 14 75 23 77 20 3 -2 -4 -7 -14 -11 -39 -12 -149
-58 -154 -64 -7 -8 -50 -10 -50 -3 0 4 8 15 17 26 17 19 17 20 0 14 -12 -5
-16 -3 -11 4 4 7 1 10 -7 7 -18 -6 -19 -98 -1 -98 7 0 10 5 7 10 -3 6 0 10 8
10 10 0 13 -8 9 -25 -3 -17 -11 -25 -25 -25 -11 0 -18 -3 -15 -6 4 -3 2 -19
-3 -36 -8 -29 -7 -30 21 -26 24 4 30 1 30 -14 0 -15 -3 -17 -19 -8 -28 14 -28
14 -34 -30 -3 -22 -12 -47 -21 -55 -19 -20 -22 -104 -3 -110 6 -2 298 -11 647
-19 349 -9 685 -18 747 -21 l112 -5 66 92 65 93 0 332 0 333 -95 0 -95 0 0
368 c0 202 3 438 7 525 l6 158 51 -3 51 -3 -3 -210 -4 -210 24 -23 25 -22 332
2 332 3 4 65 c2 36 6 313 8 615 3 360 2 467 -3 310 -4 -132 -11 -397 -15 -590
-3 -192 -8 -352 -11 -354 -2 -2 -14 4 -25 15 l-22 19 7 608 6 607 -32 -2 c-18
0 -139 -4 -268 -8z m-2150 -124 c0 -3 -4 -8 -10 -11 -5 -3 -10 -1 -10 4 0 6 5
11 10 11 6 0 10 -2 10 -4z m-150 -10 c0 -2 -7 -7 -16 -10 -8 -3 -12 -2 -9 4 6
10 25 14 25 6z m85 -5 c-3 -5 -1 -12 5 -16 15 -10 12 -35 -5 -35 -8 0 -15 -4
-15 -10 0 -5 14 -8 30 -6 33 4 41 -13 10 -21 -28 -7 -26 -41 3 -46 12 -2 7 -4
-10 -3 -18 1 -33 -2 -33 -6 0 -4 -7 -8 -15 -8 -8 0 -15 7 -15 15 0 8 4 15 10
15 5 0 7 7 3 16 -4 10 -16 14 -39 12 -37 -3 -46 3 -51 32 -3 24 5 25 31 5 11
-8 27 -15 36 -15 19 0 53 37 45 50 -6 10 2 30 11 30 3 0 3 -4 -1 -9z m-35 -32
c0 -6 -4 -7 -10 -4 -5 3 -10 11 -10 16 0 6 5 7 10 4 6 -3 10 -11 10 -16z
m-208 -58 c2 -6 37 -13 78 -16 41 -4 78 -9 83 -12 10 -6 -11 -23 -28 -23 -5 0
-3 5 5 10 11 7 4 10 -27 10 -23 0 -45 -5 -48 -10 -4 -6 -21 -10 -38 -9 -18 1
-45 -1 -62 -5 -29 -6 -29 -6 -5 6 25 11 24 12 -15 18 -33 5 -36 7 -19 13 12 4
29 5 38 1 12 -5 15 -2 10 10 -4 10 -1 16 9 16 8 0 17 -4 19 -9z m185 -33 c-3
-8 -6 -5 -6 6 -1 11 2 17 5 13 3 -3 4 -12 1 -19z m-32 -78 c3 -6 -1 -7 -9 -4
-18 7 -21 14 -7 14 6 0 13 -4 16 -10z m45 -10 c-20 -13 -30 -12 -30 1 0 5 4 8
9 4 5 -3 13 0 16 6 4 5 10 8 13 4 4 -3 0 -10 -8 -15z m40 16 c0 -3 -4 -8 -10
-11 -5 -3 -10 -1 -10 4 0 6 5 11 10 11 6 0 10 -2 10 -4z m464 -21 c-4 -8 -8
-15 -10 -15 -2 0 -4 7 -4 15 0 8 4 15 10 15 5 0 7 -7 4 -15z m-154 -5 c18 -12
2 -12 -25 0 -13 6 -15 9 -5 9 8 0 22 -4 30 -9z m-322 -25 c4 -4 -9 -4 -30 0
-30 6 -37 4 -41 -12 -3 -11 -4 -8 -4 8 1 24 3 25 35 18 18 -4 37 -10 40 -14z
m406 -1 c26 -9 46 -18 44 -19 -5 -5 -96 20 -104 28 -12 11 9 8 60 -9z m-394
-24 c0 -5 -4 -10 -10 -10 -5 0 -10 5 -10 10 0 6 5 10 10 10 6 0 10 -4 10 -10z
m-30 -11 c0 -5 -4 -7 -10 -4 -5 3 -10 1 -10 -5 0 -6 -4 -8 -10 -5 -5 3 -10 2
-10 -4 0 -5 5 -13 10 -16 6 -3 10 -11 10 -17 0 -7 -4 -7 -13 1 -8 6 -17 8 -20
4 -4 -3 -7 1 -7 10 0 25 4 31 18 34 8 1 16 4 20 7 9 10 22 7 22 -5z m314 -145
c3 -8 2 -12 -4 -9 -6 3 -10 10 -10 16 0 14 7 11 14 -7z m-194 -34 c0 -5 -5
-10 -11 -10 -5 0 -7 5 -4 10 3 6 8 10 11 10 2 0 4 -4 4 -10z m308 -25 c-3 -3
-9 2 -12 12 -6 14 -5 15 5 6 7 -7 10 -15 7 -18z m-268 -24 c0 -5 -11 -8 -25
-6 -38 4 -43 15 -7 15 18 0 32 -4 32 -9z m1790 -1 c0 -5 -5 -10 -11 -10 -5 0
-7 5 -4 10 3 6 8 10 11 10 2 0 4 -4 4 -10z m-344 -298 c3 -153 6 -454 5 -671
l0 -393 114 3 c63 2 115 1 115 -3 0 -5 0 -74 0 -154 0 -128 -2 -144 -15 -131
-8 9 -20 18 -27 20 -10 4 -9 8 2 16 10 7 11 11 3 11 -10 0 -13 25 -13 90 l0
90 -112 0 -113 0 2 257 c2 142 3 462 3 712 0 398 2 452 15 441 12 -10 16 -63
21 -288z m-1409 206 c-3 -8 -6 -5 -6 6 -1 11 2 17 5 13 3 -3 4 -12 1 -19z
m-27 -38 c0 -5 -2 -10 -4 -10 -3 0 -8 5 -11 10 -3 6 -1 10 4 10 6 0 11 -4 11
-10z m4 -46 c3 -8 2 -12 -4 -9 -6 3 -10 10 -10 16 0 14 7 11 14 -7z m21 -34
c-3 -5 -11 -10 -16 -10 -6 0 -7 5 -4 10 3 6 11 10 16 10 6 0 7 -4 4 -10z m-52
-152 c-2 -4 -10 -5 -18 -2 -12 5 -12 10 -3 27 11 21 11 21 18 2 4 -11 6 -23 3
-27z m56 -99 c-19 -11 -24 -3 -8 14 8 9 16 11 18 5 2 -6 -3 -14 -10 -19z
m-119 -9 c0 -5 -4 -10 -10 -10 -5 0 -10 5 -10 10 0 6 5 10 10 10 6 0 10 -4 10
-10z m55 -1 c12 -18 -3 -22 -20 -5 -14 14 -14 16 -1 16 8 0 18 -5 21 -11z m42
-61 c-3 -8 -6 -5 -6 6 -1 11 2 17 5 13 3 -3 4 -12 1 -19z m33 6 c0 -8 -4 -12
-10 -9 -5 3 -10 10 -10 16 0 5 5 9 10 9 6 0 10 -7 10 -16z m210 -954 c0 -5 -5
-10 -11 -10 -5 0 -7 5 -4 10 3 6 8 10 11 10 2 0 4 -4 4 -10z m105 -39 c0 -29
-5 -46 -14 -49 -10 -3 -12 0 -7 13 4 11 2 22 -6 26 -9 6 -9 11 1 22 7 9 8 18
3 21 -6 3 -12 -3 -15 -14 -7 -28 -22 -25 -22 5 0 23 4 26 30 23 28 -3 29 -6
30 -47z m170 39 c-3 -5 -12 -10 -18 -10 -7 0 -6 4 3 10 19 12 23 12 15 0z
m-275 -30 c0 -5 -5 -10 -11 -10 -5 0 -7 5 -4 10 3 6 8 10 11 10 2 0 4 -4 4
-10z m60 -45 c0 -14 -4 -25 -10 -25 -11 0 -14 33 -3 43 11 11 13 8 13 -18z
m-32 -287 c-2 -6 -10 -13 -16 -14 -9 -2 -9 -1 -1 3 8 4 7 8 -2 14 -11 7 -10 9
4 9 10 0 17 -5 15 -12z"/>
<path d="M127 5214 c6 -15 23 -19 23 -5 0 5 -7 11 -14 14 -10 4 -13 1 -9 -9z"/>
<path d="M236 5195 c4 -8 8 -15 10 -15 2 0 4 7 4 15 0 8 -4 15 -10 15 -5 0 -7
-7 -4 -15z"/>
<path d="M257 5143 c-3 -4 7 -17 22 -27 l26 -20 -20 25 c-11 13 -21 25 -21 27
-1 2 -4 0 -7 -5z"/>
<path d="M280 5023 c8 -3 19 -11 23 -17 6 -7 7 -6 4 4 -2 8 -12 16 -23 17 -13
2 -15 1 -4 -4z"/>
<path d="M336 5014 c-4 -9 -4 -19 -1 -22 3 -3 5 1 5 8 0 8 8 3 20 -10 14 -16
20 -19 20 -8 0 8 -8 23 -19 32 -17 16 -19 16 -25 0z"/>
<path d="M392 4969 c1 -13 8 -23 13 -21 15 3 12 35 -3 40 -9 3 -13 -3 -10 -19z"/>
<path d="M320 4650 c0 -5 7 -7 15 -4 8 4 15 8 15 10 0 2 -7 4 -15 4 -8 0 -15
-4 -15 -10z"/>
<path d="M740 3815 l-85 -44 93 0 92 -1 0 45 c0 25 -3 45 -7 44 -5 0 -46 -20
-93 -44z"/>
</g>
</svg>
