<?xml version="1.0" standalone="no"?>
<!DOCTYPE svg PUBLIC "-//W3C//DTD SVG 20010904//EN"
 "http://www.w3.org/TR/2001/REC-SVG-20010904/DTD/svg10.dtd">
<svg version="1.0" xmlns="http://www.w3.org/2000/svg"
 width="100.000000pt" height="2000.000000pt" viewBox="0 0 2000.000000 700.000000"
 preserveAspectRatio="xMidYMid meet">

<g transform="translate(0.000000,1080.000000) scale(0.100000,-0.100000)"
fill="#000000" stroke="none">
<path d="M6905 8223 c11 -87 34 -378 30 -381 -2 -2 -12 2 -23 9 -21 13 -22 21
-38 292 -8 123 3 114 -119 96 -62 -9 -286 -37 -562 -71 -77 -10 -93 -15 -95
-30 -3 -17 -6 -17 -38 6 -29 20 -38 22 -50 11 -8 -7 -118 -26 -250 -44 -129
-17 -266 -36 -305 -41 -38 -5 -117 -15 -173 -22 l-104 -12 7 -71 c16 -179 25
-238 37 -252 7 -9 7 -13 -1 -13 -7 0 -10 -4 -7 -9 3 -5 0 -11 -8 -14 -11 -4
-15 18 -20 111 -11 189 -15 212 -38 212 -11 0 -117 16 -237 35 -119 19 -261
42 -316 50 -162 25 -255 39 -539 86 -139 22 -191 27 -196 19 -4 -7 -10 -60
-14 -118 -14 -223 -25 -285 -51 -312 -23 -23 -25 -23 -25 -5 0 20 21 227 40
384 5 47 8 86 7 87 -3 3 -166 -208 -181 -234 -4 -7 -11 -53 -16 -103 -11 -113
-23 -127 -84 -94 -108 59 -264 71 -589 46 -78 -7 -225 -18 -327 -26 -337 -26
-475 -37 -477 -39 -1 -1 7 -81 18 -176 14 -125 17 -181 10 -197 -12 -27 -31
-30 -31 -5 -1 36 -39 384 -43 388 -4 4 -63 -137 -61 -146 1 -3 5 -41 9 -85 l6
-80 -48 81 c-69 118 -78 128 -98 116 -14 -7 -32 6 -94 68 -146 147 -307 233
-516 274 -352 71 -701 6 -959 -178 -34 -24 -54 -32 -62 -26 -16 14 -151 -130
-219 -234 l-55 -84 0 -81 c0 -47 4 -81 10 -81 6 0 10 -5 10 -11 0 -5 -4 -7
-10 -4 -6 4 -10 -7 -10 -25 0 -17 4 -29 9 -25 5 3 12 1 16 -5 3 -5 -1 -10 -9
-10 -12 0 -15 -18 -15 -95 0 -53 3 -94 8 -91 4 3 6 19 3 36 l-5 32 34 -17 c18
-10 39 -24 47 -31 7 -8 17 -14 21 -14 4 0 8 -6 8 -14 0 -9 -7 -12 -16 -9 -12
5 -11 1 4 -14 11 -11 22 -16 25 -12 8 12 70 6 70 -6 0 -6 -6 -17 -13 -24 -7
-8 -7 -11 -1 -8 14 8 24 -36 13 -55 -7 -10 -9 -9 -9 5 0 9 -6 17 -12 17 -9 0
-8 4 2 11 12 8 10 9 -10 5 -14 -3 -28 -6 -32 -6 -5 0 -8 -5 -8 -11 0 -5 5 -7
10 -4 6 3 10 1 10 -4 0 -6 6 -10 13 -9 7 2 12 -8 13 -25 1 -15 3 -29 6 -32 4
-4 42 -13 65 -14 6 -1 10 -14 9 -31 -2 -25 1 -29 16 -24 13 4 16 1 12 -9 -3
-9 -13 -13 -25 -10 -12 3 -19 0 -19 -8 -1 -10 -4 -8 -11 4 -12 20 -28 23 -25
5 3 -20 25 -54 26 -40 0 8 8 6 22 -8 12 -11 24 -16 27 -12 3 5 20 3 36 -4 30
-13 30 -13 4 -14 -14 0 -31 -6 -38 -12 -9 -8 -11 -8 -8 -2 4 7 0 15 -9 18 -23
9 -36 7 -29 -4 3 -6 -1 -7 -9 -4 -9 4 -16 1 -16 -6 0 -9 -4 -9 -13 -2 -10 8
-13 6 -13 -7 0 -10 6 -17 12 -14 7 2 15 -1 20 -8 5 -8 3 -10 -6 -4 -10 6 -12
4 -7 -8 7 -18 -8 -24 -18 -7 -3 6 -14 10 -23 10 -9 -1 0 -10 22 -21 26 -14 52
-20 77 -17 22 2 39 0 39 -4 0 -5 -6 -8 -12 -9 -7 0 -4 -4 7 -9 14 -6 15 -9 5
-9 -22 -1 -20 -39 2 -44 15 -4 16 -2 7 15 -10 19 -10 19 14 3 24 -15 26 -15
36 2 9 15 10 12 11 -19 0 -21 5 -38 10 -38 6 0 10 -4 10 -10 0 -5 -6 -7 -14
-4 -7 3 -16 -2 -19 -10 -7 -19 -6 -19 27 -6 17 6 26 6 26 0 0 -6 -9 -10 -19
-10 -18 0 -19 -3 -10 -30 6 -16 16 -30 22 -30 7 0 7 4 -1 12 -7 7 -12 16 -12
22 0 5 8 0 17 -10 10 -11 24 -19 31 -18 6 1 17 2 23 3 5 0 7 6 4 11 -3 6 -1
10 4 10 15 0 14 -23 -1 -39 -18 -19 31 7 51 26 9 9 17 11 24 4 5 -5 17 -7 25
-3 14 5 15 4 2 -10 -8 -8 -24 -13 -35 -11 -11 2 -14 1 -7 -3 6 -3 12 -13 13
-22 0 -11 2 -13 6 -4 4 10 8 10 19 1 12 -10 18 -8 29 7 8 10 15 15 15 9 0 -5
5 -3 10 5 8 13 10 12 10 -4 0 -12 -5 -16 -15 -12 -8 3 -15 1 -15 -5 0 -14 28
-23 43 -13 7 5 4 1 -7 -9 -15 -14 -21 -15 -28 -5 -8 10 -11 10 -15 1 -2 -7 -9
-13 -14 -13 -6 0 -7 5 -3 12 4 7 3 8 -4 4 -6 -4 -9 -13 -5 -22 3 -10 9 -11 17
-5 16 13 49 7 54 -10 3 -11 1 -11 -7 1 -8 11 -11 12 -11 2 0 -7 -3 -11 -8 -8
-11 7 -72 -22 -72 -34 0 -6 -4 -8 -10 -5 -5 3 -10 1 -10 -5 0 -6 -4 -8 -10 -5
-5 3 -20 -1 -32 -11 -20 -14 -20 -16 -3 -9 23 8 24 8 47 6 12 -1 16 -9 15 -27
-2 -22 3 -27 23 -29 31 -3 48 14 42 39 -3 12 -1 17 6 13 5 -4 13 -1 16 5 5 10
7 10 12 1 3 -7 12 -9 20 -6 10 4 12 0 7 -13 -4 -12 -3 -15 5 -10 8 5 10 1 5
-10 -5 -15 -8 -15 -17 -2 -6 8 -17 13 -24 10 -11 -3 -10 -7 2 -21 13 -15 10
-16 -30 -18 -51 -2 -79 -21 -59 -40 7 -7 15 -10 18 -7 2 3 7 -2 10 -11 6 -14
4 -14 -23 0 -30 16 -56 2 -29 -16 10 -6 11 -9 2 -9 -7 0 -13 -6 -13 -14 0 -29
-83 2 -142 52 -23 19 -23 40 0 44 14 3 13 5 -5 10 -18 5 -23 2 -23 -13 0 -24
-16 -25 -29 -1 -6 9 -11 13 -11 9 -1 -25 -146 115 -205 198 -23 33 -54 82 -69
110 l-26 50 0 -42 c0 -33 10 -57 52 -120 165 -246 429 -400 758 -443 41 -5
139 -10 218 -10 l142 0 0 30 c0 36 -4 35 187 19 130 -11 130 -11 199 16 282
111 483 326 571 612 26 83 27 99 27 283 0 134 -3 203 -12 220 -12 24 -12 24
-6 -7 5 -30 -12 -255 -22 -299 -4 -16 -11 -20 -25 -17 -16 5 -18 11 -11 47 4
22 6 121 6 218 l-2 177 44 7 c24 3 50 4 57 1 9 -3 17 -42 25 -119 6 -62 21
-204 33 -316 12 -112 19 -206 15 -209 -3 -3 -28 -8 -56 -11 -32 -3 -50 -9 -50
-18 0 -44 42 -390 48 -395 13 -14 90 -17 169 -8 43 5 247 27 453 50 206 23
377 43 378 44 4 4 -23 289 -35 373 l-6 44 -71 -4 -71 -3 -8 48 c-12 65 -6 77
43 77 63 0 167 27 313 80 177 65 194 72 255 114 l52 36 -6 -57 c-4 -32 -9 -83
-13 -112 l-6 -55 -65 -16 c-54 -13 -66 -20 -68 -38 -16 -106 -48 -448 -43
-453 3 -4 195 -23 426 -43 231 -21 568 -50 748 -67 214 -19 391 -29 506 -29
l178 0 11 131 c6 73 15 135 19 139 7 7 653 48 888 57 55 2 261 13 457 23 466
26 520 25 696 -6 79 -14 199 -34 265 -44 67 -11 194 -33 282 -49 88 -17 316
-57 508 -91 331 -58 389 -64 426 -41 12 8 82 428 74 444 -2 4 -19 7 -38 7 -28
0 -34 -4 -39 -27 -5 -24 -44 -268 -62 -385 -6 -39 -18 -49 -27 -24 -3 7 8 98
24 202 16 104 29 192 29 196 0 4 -23 10 -50 14 -53 7 -61 21 -22 39 12 5 21
12 19 15 -16 31 -77 163 -77 169 0 4 33 4 73 0 112 -12 477 -11 477 1 0 6 7
10 15 10 13 0 15 -37 15 -271 l0 -271 30 -11 c17 -6 30 -15 30 -19 0 -4 -7 -5
-15 -2 -8 4 -21 2 -28 -4 -11 -8 -21 -9 -52 -2 -5 1 -36 2 -67 1 -55 -1 -57
-2 -49 -23 4 -12 5 -37 1 -55 -5 -22 -4 -31 3 -26 7 4 8 -1 4 -13 -7 -18 -7
-18 8 0 17 22 20 40 5 31 -5 -3 -10 -1 -10 5 0 7 7 9 16 6 9 -3 18 -6 20 -6 3
0 2 -4 -1 -10 -3 -5 -2 -10 3 -10 17 0 22 13 9 28 -9 13 -9 14 1 8 6 -4 12 -3
12 3 0 5 -8 15 -17 20 -14 8 -10 9 17 4 43 -7 38 -3 42 -37 2 -18 -2 -31 -11
-34 -8 -3 -11 0 -7 6 3 6 1 14 -5 18 -9 5 -10 0 -6 -15 5 -20 3 -22 -21 -17
-20 5 -23 4 -12 -4 12 -8 10 -10 -10 -11 -14 0 -19 -3 -12 -6 18 -7 102 26
102 39 0 6 3 8 6 5 4 -4 1 -13 -6 -22 -15 -17 -7 -19 21 -5 13 7 19 7 19 0 0
-5 -4 -10 -10 -10 -5 0 -39 -13 -73 -30 -74 -35 -77 -35 -77 -15 0 8 6 15 13
15 8 0 7 3 -3 9 -20 14 -28 5 -23 -23 4 -21 14 -27 72 -40 36 -8 113 -23 171
-32 108 -17 132 -26 114 -44 -7 -7 -54 -3 -145 10 -229 35 -669 109 -769 130
-52 11 -98 20 -101 20 -3 0 -19 -93 -34 -207 -31 -231 -31 -233 -43 -233 -5 0
4 87 20 193 27 182 29 269 8 282 -5 3 -11 1 -15 -5 -3 -5 -16 -10 -28 -10 -12
0 -32 -1 -44 -1 -34 -1 -660 101 -870 142 -84 16 -155 29 -157 29 -3 0 -7 -19
-11 -42 -48 -357 -56 -403 -78 -421 -12 -11 -23 -14 -25 -9 -2 6 9 93 23 194
14 101 28 199 31 218 l4 35 -20 -43 -20 -43 -235 7 -235 7 0 -43 c0 -42 0 -43
-20 -25 -13 12 -20 31 -20 57 0 45 -8 47 -40 13 -13 -14 -18 -25 -12 -25 14 0
82 -67 82 -81 0 -6 -12 -2 -27 9 -91 64 -244 117 -381 132 -299 33 -659 -91
-872 -299 -48 -48 -65 -59 -76 -50 -19 16 -27 8 -94 -92 -59 -88 -72 -123 -49
-131 8 -3 5 -22 -10 -63 -30 -81 -68 -262 -75 -367 -4 -49 -2 -143 5 -213 12
-123 9 -149 -12 -128 -38 38 -53 314 -25 457 12 60 13 95 7 140 -5 34 -17 131
-26 216 -9 85 -19 166 -23 180 l-7 25 -445 -16 c-245 -9 -526 -19 -625 -23
-99 -3 -249 -9 -334 -12 l-154 -7 7 -61 c3 -33 13 -126 21 -205 14 -134 14
-147 -2 -170 l-17 -26 -6 25 c-4 14 -15 121 -25 238 -10 117 -22 209 -26 205
-4 -5 -24 -41 -44 -81 -21 -40 -41 -74 -44 -76 -3 -2 -64 0 -136 5 -71 5 -245
15 -385 24 -140 9 -428 27 -640 40 -212 13 -464 29 -560 35 -96 6 -239 16
-318 21 -79 6 -145 9 -147 7 -2 -1 -5 -41 -6 -88 l-4 -85 29 0 c33 0 47 21 19
28 -17 4 -17 5 0 6 9 0 17 6 17 11 0 14 52 8 68 -7 7 -7 24 -13 36 -13 20 0
22 4 18 27 -5 26 -5 26 19 10 13 -10 32 -17 42 -17 16 0 17 2 7 15 -11 13 -10
14 4 9 12 -4 15 -2 10 9 -3 8 1 18 8 23 7 4 10 4 6 -1 -4 -4 -3 -15 4 -22 9
-11 9 -17 -3 -24 -11 -7 -8 -9 11 -9 l25 -1 -23 -16 c-27 -19 -28 -30 -4 -36
10 -3 7 -5 -10 -6 -15 0 -32 -9 -38 -18 -9 -15 -10 -11 -6 20 4 32 2 37 -15
37 -10 0 -18 -5 -16 -11 1 -6 -4 -14 -12 -17 -8 -3 -11 0 -7 7 4 6 2 11 -3 11
-6 0 -11 -6 -11 -12 0 -9 -3 -8 -10 2 -7 11 -12 12 -21 3 -6 -6 -26 -9 -45 -6
-22 4 -34 2 -34 -6 0 -6 5 -11 10 -11 6 0 10 -5 10 -11 0 -5 -4 -8 -9 -4 -5 3
-12 1 -16 -5 -3 -5 -20 -7 -38 -5 l-32 5 30 -14 c27 -13 33 -12 67 6 39 22 68
19 68 -8 0 -13 -6 -15 -30 -11 -23 5 -28 3 -24 -8 4 -8 11 -12 18 -8 6 3 3 -3
-7 -14 -16 -19 -16 -21 -2 -27 21 -7 35 0 35 19 0 9 6 12 16 8 13 -5 13 -7 2
-14 -10 -7 -10 -9 0 -9 6 0 12 -4 12 -10 0 -5 -17 -11 -37 -11 -22 -1 -29 -3
-18 -6 24 -6 44 -23 27 -23 -7 0 -12 -6 -12 -14 0 -11 10 -13 41 -9 36 5 40 4
39 -13 -3 -29 1 -61 6 -48 5 12 54 7 54 -6 0 -4 -8 -11 -17 -14 -13 -5 -14 -9
-4 -19 9 -9 14 -9 22 3 9 13 10 12 5 -2 -3 -11 2 -22 14 -28 25 -14 25 -25 -1
-51 -15 -15 -20 -29 -15 -50 4 -23 2 -27 -12 -23 -14 5 -15 4 -2 -5 8 -6 25
-11 38 -11 12 0 22 -4 22 -10 0 -5 -9 -10 -20 -10 -28 0 -25 -17 5 -24 14 -4
25 -14 25 -22 0 -13 -7 -15 -35 -10 -26 5 -35 3 -35 -7 0 -22 12 -28 28 -14
13 10 14 8 8 -16 -6 -26 -5 -27 13 -18 25 14 34 14 26 1 -3 -5 -1 -10 4 -10 6
0 11 -7 11 -15 0 -18 -11 -19 -29 -2 -10 9 -15 9 -18 0 -2 -7 -11 -9 -18 -6
-8 3 -22 -2 -31 -11 -15 -16 -15 -30 0 -67 7 -17 -26 -17 -219 1 -92 8 -101 8
-119 -10 -16 -16 -17 -20 -5 -24 84 -31 658 -94 670 -74 15 23 38 0 34 -34 -4
-34 -15 -151 -36 -385 l-12 -133 29 -26 c16 -15 23 -23 16 -19 -7 4 -19 2 -27
-5 -9 -7 -20 -8 -32 -2 -10 5 -48 12 -85 14 l-66 6 -4 -60 c-2 -33 -1 -61 1
-63 2 -2 10 3 18 11 15 15 38 10 28 -7 -4 -5 -2 -9 3 -9 12 0 22 24 22 51 0
13 7 19 23 19 19 0 23 -5 21 -27 -1 -16 -2 -31 -3 -35 0 -3 -19 -9 -41 -13
-22 -4 -40 -11 -40 -17 0 -6 8 -7 18 -3 44 17 72 18 72 1 0 -9 -5 -16 -11 -16
-5 0 -7 4 -4 10 3 6 1 10 -5 10 -6 0 -13 -6 -16 -14 -5 -12 -16 -18 -66 -31
-5 -2 -12 -3 -18 -4 -5 0 -10 -6 -10 -12 0 -8 6 -7 17 2 15 12 16 12 9 -6 -5
-11 -9 -25 -9 -32 0 -6 -6 -9 -13 -6 -13 5 -17 -5 -29 -81 -4 -22 -13 -49 -21
-60 -21 -30 -18 -76 4 -76 16 0 176 -18 577 -65 77 -9 232 -27 345 -40 l205
-24 28 32 c84 97 78 77 103 325 32 314 36 282 -38 282 -35 0 -68 4 -74 8 -8 5
0 119 28 392 21 212 40 390 42 396 2 6 20 8 41 6 l38 -5 -7 -81 c-19 -233 -19
-251 -2 -265 15 -13 166 -30 419 -47 l97 -7 -1 34 c0 25 -2 29 -8 16 -6 -17
-8 -16 -20 6 -14 25 -6 139 31 482 11 100 13 106 19 65 4 -25 8 -73 8 -107 1
-34 4 -64 9 -66 4 -2 33 -1 65 2 36 5 61 3 64 -3 9 -14 74 -658 68 -674 -3 -7
-29 -24 -59 -37 -30 -13 -56 -28 -59 -32 -3 -4 5 -109 17 -233 l21 -225 30 -3
c40 -4 1437 143 1540 162 244 45 255 48 255 65 0 9 -7 63 -15 121 -23 169 -26
165 63 79 174 -169 339 -242 635 -280 408 -53 774 15 1012 185 27 20 60 36 72
36 12 0 246 -29 519 -65 273 -35 500 -62 505 -60 4 3 18 1 31 -5 13 -5 184
-30 382 -55 197 -25 435 -57 528 -71 94 -14 172 -24 173 -22 4 4 65 426 65
450 0 11 -4 17 -9 13 -5 -3 -42 0 -81 7 -75 13 -97 31 -66 53 13 10 28 97 75
430 32 229 63 420 67 424 5 5 42 18 82 31 39 12 72 26 72 31 0 47 44 305 53
311 7 5 21 6 32 4 11 -3 171 -8 356 -12 l335 -7 47 66 47 66 0 240 0 241 -70
0 -70 0 0 238 c0 130 3 301 7 380 l6 142 40 0 39 0 -7 -150 c-7 -137 -6 -153
10 -170 17 -19 33 -20 260 -20 l242 0 6 233 c4 127 6 336 5 462 -1 182 -3 137
-10 -209 -5 -242 -11 -442 -13 -444 -3 -3 -12 1 -21 9 -15 13 -16 50 -10 451
l8 438 -64 0 c-35 0 -337 -7 -673 -15 -931 -22 -1048 -25 -1208 -31 l-148 -6
3 -82 c3 -72 5 -81 23 -84 57 -8 69 -13 54 -23 -7 -5 -28 -9 -46 -9 -24 0 -31
-4 -28 -17 3 -19 7 -19 39 -7 15 6 17 4 11 -6 -6 -10 -4 -12 8 -7 54 22 53 22
38 4 -13 -17 -3 -24 15 -9 5 4 0 -2 -11 -12 -20 -19 -19 -19 28 -13 31 4 46 3
42 -3 -3 -6 -17 -10 -31 -10 -13 0 -24 -6 -24 -12 0 -10 -3 -9 -9 1 -5 7 -11
9 -14 5 -7 -13 4 -64 14 -64 5 0 6 7 3 15 -7 17 21 21 31 5 3 -5 11 -10 16
-10 6 0 8 3 6 8 -3 4 9 7 26 6 24 -1 32 -6 33 -20 2 -41 4 -49 12 -39 4 6 21
11 37 13 l30 3 -24 -17 c-18 -13 -20 -18 -10 -25 8 -5 17 -3 21 4 5 8 8 4 8
-10 0 -14 6 -23 15 -23 8 0 15 5 15 10 0 6 7 10 16 10 12 0 11 -5 -7 -20 -15
-12 -19 -19 -10 -20 11 0 10 -5 -4 -20 -15 -16 -16 -22 -5 -35 9 -11 16 -12
25 -5 9 7 16 5 26 -7 13 -16 12 -17 -3 -4 -12 9 -18 10 -18 2 0 -6 10 -16 23
-21 13 -5 16 -9 6 -9 -8 -1 -21 5 -28 12 -11 10 -12 7 -7 -15 6 -28 2 -32 -34
-29 -8 1 1 -7 20 -18 19 -10 39 -17 45 -14 5 3 0 -4 -13 -14 -14 -12 -21 -25
-17 -35 4 -11 0 -18 -12 -21 -14 -4 -14 -5 5 -6 16 -1 22 5 22 22 1 22 1 22
15 -3 23 -41 19 -49 -21 -43 -29 5 -39 2 -47 -13 -16 -27 -16 -52 0 -58 7 -3
13 -10 13 -16 0 -6 -57 -10 -160 -10 -137 0 -160 -2 -168 -17 -7 -11 -11 13
-14 78 -4 84 -8 102 -41 166 l-37 72 27 26 c15 14 31 25 35 25 5 0 8 115 8
255 l0 255 109 0 c105 0 109 1 114 23 12 46 37 220 33 224 -4 4 -19 6 -466 48
-151 14 -287 29 -302 34 -23 8 -27 6 -33 -18 l-7 -26 -32 39 c-29 34 -35 37
-54 27 -16 -9 -58 -8 -174 4 -499 50 -660 65 -677 65 -16 0 -20 -11 -29 -72
-5 -40 -10 -80 -10 -88 -1 -8 -5 -46 -11 -85 -6 -44 -6 -74 0 -79 14 -15 11
-22 -15 -40 l-25 -16 0 99 c0 54 -4 107 -8 119 -13 34 -97 171 -106 172 -4 0
-5 -21 -2 -47z m199 -201 c2 -4 0 -14 -5 -22 -8 -13 -10 -13 -18 0 -10 15 -6
30 9 30 5 0 11 -4 14 -8z m81 -96 c15 -16 19 -27 12 -29 -9 -3 -9 -8 1 -18 10
-11 16 -11 33 -1 12 8 18 9 14 3 -3 -6 0 -14 8 -17 8 -3 14 -16 13 -30 -1 -22
-4 -23 -48 -20 -27 2 -48 0 -48 -5 0 -5 9 -9 20 -9 12 0 26 -5 33 -10 7 -6 21
-18 32 -26 18 -14 18 -15 2 -10 -12 4 -17 2 -15 -6 3 -7 24 -18 49 -25 l44
-12 -37 2 c-44 3 -48 -4 -13 -23 34 -18 32 -34 -4 -27 -22 5 -30 2 -34 -12 -5
-19 21 -41 48 -41 8 0 15 -5 15 -11 0 -6 -13 -8 -33 -5 -45 7 -63 -20 -45 -70
7 -19 19 -34 28 -34 13 0 13 1 0 10 -13 9 -13 11 0 20 8 5 23 10 33 10 20 0
23 16 5 23 -10 4 -10 7 -1 14 6 5 19 22 27 38 11 20 16 24 16 13 0 -10 5 -18
12 -18 6 0 2 -10 -10 -23 -12 -13 -22 -28 -22 -35 0 -11 25 -29 45 -31 6 -1
26 -6 45 -11 19 -6 41 -10 48 -10 24 0 12 21 -20 35 -30 13 -30 14 -9 15 l24
0 -25 23 c-14 12 -37 32 -52 45 -16 13 -25 27 -21 30 4 4 10 1 12 -5 3 -7 13
-13 23 -13 21 0 32 34 16 50 -8 8 -7 13 4 20 17 11 37 13 27 4 -3 -3 -2 -17 3
-30 7 -18 5 -26 -8 -34 -16 -11 -16 -11 1 -6 9 3 17 1 17 -4 0 -6 11 -10 24
-10 14 0 28 -5 31 -11 12 -18 -4 -23 -32 -10 l-28 12 28 -24 c31 -28 35 -39
10 -30 -10 3 -15 2 -10 -2 14 -16 112 -48 180 -60 35 -6 38 -9 33 -31 -4 -14
-2 -24 4 -24 6 0 8 -5 4 -12 -4 -7 -9 -23 -10 -37 -3 -29 -24 -54 -24 -29 0 9
-4 20 -10 23 -6 4 -7 -1 -3 -11 4 -11 2 -15 -4 -11 -6 4 -8 -3 -5 -19 2 -14
14 -29 26 -34 11 -5 15 -9 7 -9 -7 -1 -11 -7 -7 -16 6 -16 -28 -58 -56 -68 -9
-3 -18 -1 -20 5 -2 6 -10 3 -18 -6 -12 -15 -11 -18 8 -23 12 -3 22 -11 22 -17
0 -17 -28 -16 -34 1 -3 7 -12 13 -20 13 -17 0 -27 -75 -11 -91 6 -7 0 -7 -15
1 -24 12 -24 11 -8 -5 9 -10 27 -19 40 -20 13 -1 26 -3 30 -4 4 0 5 -10 3 -21
-2 -12 2 -20 10 -20 23 0 32 -28 27 -83 -4 -46 -3 -50 12 -38 17 14 88 9 115
-9 12 -7 10 -11 -12 -21 -15 -7 -27 -19 -27 -28 0 -9 -8 -24 -17 -33 -36 -32
-53 -62 -43 -72 19 -19 10 -56 -25 -106 -29 -42 -33 -53 -25 -75 10 -26 9 -26
-28 -19 -20 4 -45 11 -55 16 -13 7 -19 4 -27 -14 -8 -21 -9 -21 -10 -3 -1 11
-4 14 -7 8 -2 -7 -14 -13 -24 -13 -12 0 -17 4 -13 11 5 8 1 8 -13 0 -11 -6
-23 -8 -26 -4 -4 3 -25 7 -49 10 -41 3 -452 68 -495 78 -22 5 -22 8 -17 83 4
42 14 133 23 202 16 113 19 125 37 123 10 -2 38 -6 60 -9 41 -6 42 -5 49 25 4
18 2 37 -3 44 -5 7 -66 83 -136 170 -69 86 -126 163 -126 170 0 6 38 60 85
119 62 78 91 108 112 112 15 3 45 8 66 12 l37 6 0 75 0 74 33 -25 c39 -30 47
-32 47 -11 0 8 9 15 21 15 11 0 17 5 14 10 -3 6 -2 10 3 10 17 0 -1 53 -19 57
-24 7 -25 23 -1 23 26 0 34 11 21 27 -20 23 3 14 26 -11z m-75 -16 c0 -12 -28
-25 -36 -17 -9 9 6 27 22 27 8 0 14 -5 14 -10z m-1870 -116 c0 -8 -4 -12 -10
-9 -5 3 -10 10 -10 16 0 5 5 9 10 9 6 0 10 -7 10 -16z m-1270 -52 c0 -5 -7
-78 -15 -163 -8 -85 -28 -305 -45 -489 -18 -184 -35 -338 -39 -343 -4 -4 -32
-2 -62 4 l-54 12 30 13 c17 7 35 13 41 14 7 0 14 32 17 78 31 372 82 840 94
860 13 22 33 30 33 14z m1367 -34 c-7 -4 -21 -8 -32 -8 -18 1 -19 1 -2 11 9 5
17 17 17 26 0 14 2 14 14 -3 11 -14 11 -21 3 -26z m3573 10 c0 -6 -6 -5 -15 2
-8 7 -15 14 -15 16 0 2 7 1 15 -2 8 -4 15 -11 15 -16z m-85 -8 c4 -6 23 -10
43 -10 20 0 46 0 57 -1 19 -1 18 -2 -2 -11 -13 -6 -23 -17 -23 -23 0 -17 -31
-28 -44 -15 -7 7 -4 10 9 10 29 0 5 18 -29 22 -19 2 -30 9 -32 21 -2 19 11 23
21 7z m-3472 -30 c-3 -11 -9 -20 -14 -20 -5 0 -9 9 -9 20 0 11 6 20 14 20 9 0
12 -7 9 -20z m83 -10 c-1 -21 -5 -29 -14 -25 -8 3 -15 5 -18 5 -2 0 -1 7 2 15
4 8 1 15 -5 15 -6 0 -11 5 -11 10 0 6 11 10 24 10 19 0 23 -5 22 -30z m3289
20 c-3 -5 -5 -10 -3 -11 2 0 26 -3 53 -5 80 -9 72 -20 -14 -19 -44 0 -83 3
-87 8 -4 4 -2 7 5 7 7 0 19 7 27 15 17 17 28 20 19 5z m-3355 -40 c0 -5 -4
-10 -10 -10 -5 0 -10 5 -10 10 0 6 5 10 10 10 6 0 10 -4 10 -10z m1910 -16 c0
-8 -5 -12 -10 -9 -6 4 -8 11 -5 16 9 14 15 11 15 -7z m-1933 -19 c-4 -8 -2
-17 3 -20 6 -4 10 1 10 9 0 12 10 16 35 16 29 0 35 -4 33 -17 -2 -14 6 -19 42
-24 43 -5 44 -5 16 -14 l-29 -8 29 -15 c26 -14 27 -16 9 -20 -43 -7 -46 -11
-35 -32 7 -13 21 -20 40 -20 17 0 30 -5 30 -11 0 -6 -7 -8 -16 -5 -19 7 -50
-8 -58 -29 -8 -21 10 -55 30 -55 12 0 12 4 -2 25 -15 23 -15 25 2 25 24 0 54
29 55 54 0 12 3 15 6 8 2 -6 9 -10 13 -7 5 3 7 12 3 21 -4 12 0 14 20 9 32 -8
40 5 22 38 -12 24 -12 27 3 27 10 0 23 -9 30 -21 8 -12 9 -19 4 -15 -5 3 -9
-1 -9 -8 0 -8 6 -12 14 -9 7 3 13 1 13 -4 0 -5 10 -9 23 -8 12 0 22 -4 22 -10
0 -5 -11 -9 -23 -7 -15 2 -21 -1 -17 -8 3 -6 10 -8 15 -5 4 3 13 -1 19 -9 9
-11 9 -15 -1 -18 -15 -5 88 -22 115 -19 9 1 17 -2 17 -7 0 -5 -35 -9 -79 -8
-75 1 -79 2 -76 23 1 12 -1 20 -5 18 -4 -3 -24 2 -44 10 -49 21 -53 20 -67
-19 -9 -25 -17 -32 -31 -28 -13 3 -18 -1 -18 -17 0 -15 4 -20 13 -14 6 4 32 8
57 8 25 0 56 4 69 9 16 6 21 5 17 -3 -4 -6 0 -11 8 -11 9 0 16 3 16 8 0 4 11
8 26 8 23 2 24 1 7 -11 -10 -7 -15 -17 -10 -21 4 -4 7 -2 7 6 0 10 3 10 15 0
13 -10 15 -9 15 8 0 28 25 18 27 -10 1 -12 -3 -28 -8 -34 -7 -9 -5 -16 10 -23
25 -14 34 -14 25 0 -4 7 -1 10 7 7 8 -3 13 -11 11 -17 -1 -7 2 -10 7 -6 6 3 8
12 4 21 -4 12 1 14 23 11 21 -3 29 -9 30 -24 2 -35 13 -55 28 -50 10 4 13 -2
12 -21 -3 -33 -26 -83 -36 -77 -4 2 -16 -2 -26 -10 -18 -13 -18 -14 9 -24 15
-6 27 -15 27 -21 0 -6 -14 -5 -35 4 -34 15 -35 15 -35 -9 0 -13 4 -35 10 -49
6 -17 6 -26 0 -26 -6 0 -10 -4 -10 -10 0 -6 9 -6 25 0 20 8 27 6 37 -10 7 -11
20 -20 29 -20 20 0 39 -41 39 -87 0 -34 1 -35 18 -20 13 12 36 17 72 17 l53 0
-21 -23 c-12 -13 -22 -30 -22 -39 0 -9 -10 -34 -21 -56 -20 -38 -21 -42 -5
-57 18 -18 21 -47 7 -73 -36 -66 -39 -79 -20 -93 23 -16 15 -29 -17 -29 -14 0
-22 -4 -19 -10 3 -5 4 -10 1 -10 -2 0 -12 -3 -20 -6 -12 -4 -15 -2 -10 9 9 26
-18 32 -37 8 -16 -19 -34 -23 -196 -36 -98 -8 -235 -17 -304 -21 l-127 -7 -16
71 c-9 39 -16 88 -16 109 0 21 -3 62 -6 91 -6 44 -10 52 -28 52 -36 0 -66 12
-66 25 0 7 -10 15 -22 19 -37 10 -116 7 -123 -5 -10 -15 -66 -6 -98 15 -29 20
-65 18 -222 -11 -53 -10 -21 6 95 47 62 22 116 42 119 46 3 3 11 65 16 137
l10 132 46 -3 c38 -2 69 8 195 66 l149 68 0 35 c-1 19 -4 86 -9 151 -7 108 -6
117 11 121 10 3 20 5 22 6 2 0 1 -6 -2 -14z m3443 -26 c0 -3 -11 -4 -25 -1
-25 4 -31 13 -19 25 7 6 44 -14 44 -24z m-3255 11 c3 -5 1 -10 -4 -10 -6 0
-11 5 -11 10 0 6 2 10 4 10 3 0 8 -4 11 -10z m3695 -10 c0 -5 -5 -10 -11 -10
-5 0 -7 5 -4 10 3 6 8 10 11 10 2 0 4 -4 4 -10z m-349 -27 c13 -17 13 -17 -6
-3 -11 8 -22 16 -24 17 -2 2 0 3 6 3 6 0 17 -8 24 -17z m284 7 c13 -6 15 -9 5
-9 -8 0 -22 4 -30 9 -18 12 -2 12 25 0z m-1896 -9 c15 -10 7 -31 -12 -31 -7 0
-13 9 -13 20 0 22 4 24 25 11z m1589 -25 c-10 -7 -15 -16 -11 -19 3 -4 4 -7 1
-7 -3 0 -12 8 -19 17 -8 9 -9 14 -4 11 6 -4 17 -3 25 3 22 13 27 10 8 -5z
m-8675 -23 c-7 -2 -19 -2 -25 0 -7 3 -2 5 12 5 14 0 19 -2 13 -5z m7262 -3 c8
-13 -5 -13 -25 0 -13 8 -13 10 2 10 9 0 20 -4 23 -10z m-1925 -26 c0 -2 -12
-4 -26 -4 -14 0 -23 4 -20 9 6 8 46 4 46 -5z m-3466 -65 c3 -17 6 -46 5 -63 0
-28 -3 -25 -20 23 -10 29 -16 57 -13 62 10 17 22 8 28 -22z m3606 8 c10 -4 8
-6 -6 -6 -12 -1 -25 6 -28 15 -5 13 -3 14 6 7 7 -6 20 -13 28 -16z m250 -18
c0 -10 5 -19 11 -19 8 0 8 -4 0 -14 -8 -10 -9 -16 -1 -21 14 -9 13 -42 -3 -48
-8 -3 -18 7 -26 24 -7 16 -17 27 -22 23 -5 -3 -9 3 -10 13 0 10 -2 28 -5 40
-3 16 2 23 19 25 29 5 37 1 37 -23z m-3576 -146 c17 -151 49 -478 63 -630 l6
-73 -52 0 c-38 0 -51 4 -49 13 3 6 17 13 31 15 32 4 32 0 12 182 -54 479 -65
611 -52 630 6 11 14 20 18 20 3 0 13 -71 23 -157z m5416 128 c0 -5 -7 -14 -15
-21 -12 -10 -15 -10 -15 2 0 8 3 18 7 21 9 10 23 9 23 -2z m-4540 -21 c0 -11
-7 -20 -15 -20 -8 0 -15 9 -15 20 0 11 7 20 15 20 8 0 15 -9 15 -20z m2766
-16 c-4 -9 -1 -24 6 -33 6 -9 1 -6 -13 7 -20 19 -22 24 -9 32 21 13 23 12 16
-6z m4059 -191 c3 -115 5 -335 4 -490 l-2 -283 87 0 87 0 -3 -102 c-2 -84 -6
-103 -18 -103 -12 0 -16 17 -18 83 l-3 82 -82 -6 -82 -7 1 59 c1 33 2 265 3
517 1 285 5 457 11 457 5 0 11 -85 15 -207z m-4231 182 c-4 -8 -14 -15 -23
-15 -14 1 -13 3 3 15 25 19 27 19 20 0z m-914 -15 c0 -5 -4 -10 -10 -10 -5 0
-10 5 -10 10 0 6 5 10 10 10 6 0 10 -4 10 -10z m-4730 -14 c0 -3 -4 -8 -10
-11 -5 -3 -10 -1 -10 4 0 6 5 11 10 11 6 0 10 -2 10 -4z m1036 -22 c10 -39 -3
-497 -16 -583 -16 -105 -45 -174 -86 -211 -43 -37 -56 -31 -78 38 -41 126 -48
503 -11 636 29 110 63 144 142 145 38 1 43 -2 49 -25z m871 -6 c-3 -8 -6 -5
-6 6 -1 11 2 17 5 13 3 -3 4 -12 1 -19z m903 -28 c0 -16 -4 -30 -10 -30 -5 0
-10 14 -10 30 0 17 5 30 10 30 6 0 10 -13 10 -30z m220 9 c0 -12 -47 -42 -60
-37 -7 2 -3 14 10 30 19 25 50 29 50 7z m-2795 -19 c3 -6 -1 -7 -9 -4 -18 7
-21 14 -7 14 6 0 13 -4 16 -10z m8615 -30 c0 -5 -2 -10 -4 -10 -3 0 -8 5 -11
10 -3 6 -1 10 4 10 6 0 11 -4 11 -10z m-8906 -116 c3 -8 2 -12 -4 -9 -6 3 -10
10 -10 16 0 14 7 11 14 -7z m636 -48 c2 -66 21 -339 26 -373 5 -35 3 -43 -9
-43 -18 0 -21 10 -36 100 -9 57 -24 238 -22 265 3 44 15 73 27 68 8 -3 14 -10
14 -17z m-590 -6 c0 -5 -5 -10 -11 -10 -5 0 -7 5 -4 10 3 6 8 10 11 10 2 0 4
-4 4 -10z m8870 0 c0 -5 -5 -10 -11 -10 -5 0 -7 5 -4 10 3 6 8 10 11 10 2 0 4
-4 4 -10z m-42 -37 c-6 -7 -7 -17 -3 -21 4 -4 10 -1 12 6 3 6 13 12 24 12 12
0 16 -5 13 -15 -7 -18 -63 -20 -66 -2 0 6 -2 17 -2 22 -1 6 -5 16 -9 23 -7 10
-3 10 17 1 20 -10 23 -15 14 -26z m-1038 -91 c0 -15 -2 -15 -10 -2 -13 20 -13
33 0 25 6 -3 10 -14 10 -23z m-7693 -8 c-3 -3 -12 -4 -19 -1 -8 3 -5 6 6 6 11
1 17 -2 13 -5z m-47 -14 c0 -5 -5 -10 -11 -10 -5 0 -7 5 -4 10 3 6 8 10 11 10
2 0 4 -4 4 -10z m110 -4 c0 -3 -4 -8 -10 -11 -5 -3 -10 -1 -10 4 0 6 5 11 10
11 6 0 10 -2 10 -4z m5933 -36 c-3 -11 -7 -20 -9 -20 -2 0 -4 9 -4 20 0 11 4
20 9 20 5 0 7 -9 4 -20z m1667 -35 c0 -1 -6 -8 -14 -15 -12 -9 -15 -8 -13 8 0
12 6 18 14 15 7 -3 13 -6 13 -8z m-7548 -61 c-2 -55 -12 -54 -12 1 0 27 3 45
7 42 3 -4 6 -23 5 -43z m3348 21 c19 -23 -25 -445 -48 -463 -25 -19 -26 -4 -7
217 22 270 25 282 55 246z m2540 1 c0 -3 -4 -8 -10 -11 -5 -3 -10 -1 -10 4 0
6 5 11 10 11 6 0 10 -2 10 -4z m-5980 -26 c0 -5 -5 -10 -11 -10 -5 0 -7 5 -4
10 3 6 8 10 11 10 2 0 4 -4 4 -10z m67 -16 c-3 -3 -12 -4 -19 -1 -8 3 -5 6 6
6 11 1 17 -2 13 -5z m4563 -92 c-29 -5 -70 6 -70 18 0 16 54 16 74 0 18 -14
18 -15 -4 -18z m-1890 4 c0 -3 -4 -8 -10 -11 -5 -3 -10 -1 -10 4 0 6 5 11 10
11 6 0 10 -2 10 -4z m-737 -140 c16 -119 29 -315 23 -332 -13 -35 -23 4 -40
161 -9 83 -19 170 -23 193 -5 42 -5 43 15 31 12 -8 22 -27 25 -53z m-1853 34
c18 -12 2 -12 -25 0 -13 6 -15 9 -5 9 8 0 22 -4 30 -9z m7137 -26 c-3 -3 -12
-4 -19 -1 -8 3 -5 6 6 6 11 1 17 -2 13 -5z m-6975 -34 c31 0 39 -3 28 -10 -12
-8 -11 -10 8 -10 14 0 22 -6 22 -17 0 -15 -2 -16 -10 -3 -8 13 -13 13 -31 2
-12 -8 -32 -11 -51 -7 -22 5 -33 2 -44 -12 -10 -13 -14 -14 -12 -3 2 11 -5 14
-25 13 -16 -1 -27 3 -25 8 2 6 6 9 10 7 3 -2 16 9 28 24 17 23 25 26 40 18 10
-6 38 -10 62 -10z m285 1 c12 -10 25 -31 29 -46 6 -24 4 -27 -10 -22 -10 4
-21 7 -25 7 -5 0 -20 11 -35 25 -23 21 -26 28 -16 40 16 19 30 18 57 -4z
m-177 -21 c0 -5 -2 -10 -4 -10 -3 0 -8 5 -11 10 -3 6 -1 10 4 10 6 0 11 -4 11
-10z m-20 -64 c0 -2 -7 -7 -16 -10 -8 -3 -12 -2 -9 4 6 10 25 14 25 6z m6740
-475 c0 -33 -146 -1041 -152 -1046 -2 -2 -36 3 -76 10 -50 8 -75 9 -79 2 -4
-6 -21 -105 -38 -220 -22 -140 -37 -212 -46 -218 -9 -5 -15 -4 -17 5 -2 11 36
331 54 449 6 36 7 37 23 23 10 -9 20 -14 22 -12 3 3 24 1 47 -5 68 -15 76 0
97 166 9 77 39 292 65 479 37 256 53 343 66 357 18 20 34 25 34 10z m-6063
-107 c-3 -3 -12 -4 -19 -1 -8 3 -5 6 6 6 11 1 17 -2 13 -5z m5933 -99 c0 -19
-4 -35 -10 -35 -11 0 -14 53 -3 63 11 12 13 8 13 -28z m1266 -42 c-4 -38 -12
-105 -18 -150 -11 -77 -14 -83 -35 -83 -26 0 -43 28 -24 40 8 4 19 57 28 121
10 78 20 118 31 127 9 6 18 12 20 12 3 0 2 -30 -2 -67z m-7153 40 c-3 -7 -9
-10 -14 -7 -14 8 -11 21 5 21 8 0 12 -6 9 -14z m42 -41 c-6 -6 -35 18 -35 29
0 5 9 1 20 -8 11 -9 17 -19 15 -21z m363 -7 c-3 -3 -9 2 -12 12 -6 14 -5 15 5
6 7 -7 10 -15 7 -18z m-385 -22 c-7 -2 -13 -10 -13 -17 0 -7 -7 -13 -15 -13
-8 0 -15 9 -15 19 0 13 7 18 28 17 15 0 21 -3 15 -6z m367 -19 c0 -2 -9 0 -20
6 -11 6 -20 13 -20 16 0 2 9 0 20 -6 11 -6 20 -13 20 -16z m4493 -31 c60 -34
114 -105 123 -163 11 -68 -4 -65 302 -68 l280 -3 132 81 c73 45 134 79 137 77
6 -7 -59 -480 -68 -490 -4 -5 -32 -3 -62 4 -43 9 -57 17 -59 32 -3 18 -27 26
-198 63 -107 24 -197 44 -199 44 -2 0 4 -9 14 -20 15 -17 17 -31 12 -87 -3
-38 -13 -91 -22 -119 -14 -43 -21 -51 -37 -46 -12 3 -17 10 -13 20 11 30 23
98 30 175 5 61 4 77 -7 77 -7 -1 -62 -15 -123 -33 l-110 -33 -11 -100 c-13
-111 -32 -172 -70 -222 -39 -50 -81 -73 -113 -61 -36 14 -89 67 -113 112 -23
46 -48 169 -48 238 0 43 -3 49 -21 49 -21 0 -21 2 -15 143 8 167 26 314 36
278 5 -22 7 -20 20 20 21 68 27 72 92 66 38 -3 76 -15 111 -34z m1950 10 c37
-6 38 -7 36 -42 -2 -28 3 -43 20 -60 28 -28 24 -33 -17 -25 -19 4 -29 11 -26
19 5 13 -43 35 -77 35 -15 0 -19 8 -19 33 0 50 7 53 83 40z m-4492 -245 c35
-341 70 -703 72 -753 l2 -50 -52 -3 c-32 -2 -53 1 -53 7 0 6 6 11 13 11 6 0
20 7 30 14 17 13 17 29 -17 377 -48 500 -51 541 -36 568 6 13 14 20 17 18 3
-3 14 -88 24 -189z m-2212 102 c-15 -10 -29 -4 -29 12 0 5 7 8 15 4 8 -3 15 0
16 7 0 8 2 7 6 -2 3 -7 -1 -17 -8 -21z m3572 -177 c-18 -143 -12 -241 25 -410
l7 -33 -47 0 c-34 0 -46 4 -46 15 0 10 -9 15 -27 14 -49 -1 -104 -14 -103 -24
1 -17 -73 -22 -104 -7 -26 13 -36 11 -118 -18 -49 -18 -91 -30 -94 -27 -3 3
34 28 83 56 48 28 94 54 100 59 10 6 9 35 -2 136 -9 70 -13 132 -10 137 4 5
23 9 43 9 30 1 60 17 167 94 72 51 132 92 133 90 2 -1 -1 -42 -7 -91z m-3581
66 c0 -5 -7 -9 -15 -9 -8 0 -15 7 -15 15 0 9 6 12 15 9 8 -4 15 -10 15 -15z
m1093 -201 c-11 -112 -18 -211 -14 -220 3 -10 -6 -142 -21 -295 -16 -153 -26
-284 -23 -290 3 -9 28 -13 77 -13 40 0 78 -4 84 -8 7 -5 8 -33 3 -92 -12 -120
-16 -135 -35 -119 -12 10 -14 27 -8 89 l6 77 -81 5 c-44 3 -83 7 -85 9 -3 2 2
76 10 164 28 315 54 612 65 740 13 162 17 181 31 167 8 -8 5 -67 -9 -214z
m2077 162 c0 -5 -7 -10 -16 -10 -8 0 -12 5 -9 10 3 6 10 10 16 10 5 0 9 -4 9
-10z m-3140 -10 c0 -5 -5 -10 -11 -10 -5 0 -7 5 -4 10 3 6 8 10 11 10 2 0 4
-4 4 -10z m0 -182 c0 -4 -6 -8 -14 -8 -8 0 -17 4 -20 8 -2 4 4 8 15 8 10 0 19
-4 19 -8z m-50 -30 c0 -6 -7 -5 -15 2 -8 7 -15 17 -15 22 0 6 7 5 15 -2 8 -7
15 -17 15 -22z m40 -28 c0 -5 -2 -10 -4 -10 -3 0 -8 5 -11 10 -3 6 -1 10 4 10
6 0 11 -4 11 -10z m6905 -172 c-18 -136 -25 -156 -37 -113 -10 40 10 204 30
235 24 38 25 12 7 -122z m-263 103 c4 -3 2 -41 -4 -85 l-11 -78 -51 7 c-27 3
-54 9 -59 12 -8 5 -5 44 10 130 l5 32 52 -6 c28 -3 54 -8 58 -12z m-1595 -208
c4 -11 -3 -24 -23 -40 -37 -31 -123 -73 -149 -73 -20 0 -5 16 98 102 37 31 65
36 74 11z m1833 -60 c0 -16 -10 -16 -44 -3 -28 10 -26 36 2 42 18 4 41 -18 42
-39z m-153 -15 c-3 -7 -5 -2 -5 12 0 14 2 19 5 13 2 -7 2 -19 0 -25z m-3434
-32 c27 -20 21 -26 -28 -26 -32 0 -45 4 -45 14 0 13 17 22 45 25 6 0 18 -6 28
-13z m-1165 -156 c37 -369 38 -400 20 -417 -10 -9 -18 -12 -18 -6 0 5 -11 110
-25 234 -31 276 -30 255 -2 237 13 -10 23 -28 25 -48z m-2018 -190 c-8 -5 -19
-10 -25 -10 -5 0 -3 5 5 10 8 5 20 10 25 10 6 0 3 -5 -5 -10z m115 -100 c-3
-5 -14 -10 -23 -10 -15 0 -15 2 -2 10 20 13 33 13 25 0z m-155 -165 c0 -8 -4
-15 -9 -15 -13 0 -22 16 -14 24 11 11 23 6 23 -9z m25 -14 c3 -5 1 -12 -5 -16
-5 -3 -10 1 -10 9 0 18 6 21 15 7z"/>
<path d="M7186 7863 c-12 -12 -6 -25 10 -19 8 3 12 2 9 -4 -3 -6 1 -10 9 -10
9 0 16 4 16 10 0 12 -35 31 -44 23z"/>
<path d="M7476 7494 c-8 -22 -8 -24 8 -24 9 0 14 9 13 20 -2 24 -13 26 -21 4z"/>
<path d="M7511 7479 c0 -22 1 -23 9 -4 7 18 9 18 15 3 3 -9 8 -25 10 -35 1
-10 8 -17 15 -15 6 1 9 -2 5 -8 -4 -6 -1 -17 5 -25 8 -9 8 -15 2 -15 -6 0 -12
5 -14 12 -2 6 -11 9 -18 6 -11 -3 -8 -8 9 -18 21 -11 26 -10 36 4 14 18 35 22
35 5 0 -5 5 -7 10 -4 6 3 10 11 10 16 0 6 -4 7 -10 4 -11 -7 -14 8 -3 18 3 4
7 18 9 31 2 20 -3 25 -29 29 -18 3 -47 9 -64 13 -30 6 -33 4 -32 -17z"/>
<path d="M7510 7354 c0 -8 5 -12 10 -9 6 3 10 10 10 16 0 5 -4 9 -10 9 -5 0
-10 -7 -10 -16z"/>
<path d="M7420 7290 c0 -5 5 -10 10 -10 6 0 10 5 10 10 0 6 -4 10 -10 10 -5 0
-10 -4 -10 -10z"/>
<path d="M7435 7190 c3 -5 13 -10 21 -10 8 0 14 5 14 10 0 6 -9 10 -21 10 -11
0 -17 -4 -14 -10z"/>
<path d="M5490 7349 c0 -5 5 -7 10 -4 6 3 10 8 10 11 0 2 -4 4 -10 4 -5 0 -10
-5 -10 -11z"/>
<path d="M5760 7291 c0 -6 5 -13 10 -16 6 -3 10 1 10 9 0 9 -4 16 -10 16 -5 0
-10 -4 -10 -9z"/>
<path d="M5676 7202 c-3 -5 1 -9 9 -9 8 0 12 4 9 9 -3 4 -7 8 -9 8 -2 0 -6 -4
-9 -8z"/>
<path d="M5715 7200 c3 -5 8 -10 11 -10 2 0 4 5 4 10 0 6 -5 10 -11 10 -5 0
-7 -4 -4 -10z"/>
<path d="M5780 7150 c0 -5 5 -10 11 -10 5 0 7 5 4 10 -3 6 -8 10 -11 10 -2 0
-4 -4 -4 -10z"/>
<path d="M5725 7121 c-3 -5 -1 -12 5 -16 12 -7 30 2 30 16 0 12 -27 12 -35 0z"/>
<path d="M503 6475 c0 -8 4 -12 9 -9 5 3 6 10 3 15 -9 13 -12 11 -12 -6z"/>
<path d="M8895 8055 c-4 -28 -12 -87 -19 -133 l-13 -83 50 3 c45 3 51 6 58 29
4 17 -3 55 -21 112 -40 124 -47 132 -55 72z"/>
<path d="M8830 7396 c0 -2 8 -10 18 -17 15 -13 16 -12 3 4 -13 16 -21 21 -21
13z"/>
<path d="M8884 7297 c-4 -7 -4 -9 1 -5 4 4 14 3 22 -3 8 -7 13 -8 13 -1 0 15
-28 23 -36 9z"/>
<path d="M8930 7278 c0 -10 5 -18 11 -18 6 0 9 -7 5 -15 -3 -8 -1 -15 4 -15
15 0 12 23 -5 46 -13 17 -14 17 -15 2z"/>
<path d="M8930 7151 c0 -5 7 -14 15 -21 13 -10 15 -9 15 9 0 12 -6 21 -15 21
-8 0 -15 -4 -15 -9z"/>
<path d="M20 7090 c0 -13 18 -22 24 -11 3 5 -1 11 -9 15 -8 3 -15 1 -15 -4z"/>
<path d="M95 7010 c-3 -5 -1 -10 4 -10 6 0 11 5 11 10 0 6 -2 10 -4 10 -3 0
-8 -4 -11 -10z"/>
<path d="M118 6983 c7 -3 16 -2 19 1 4 3 -2 6 -13 5 -11 0 -14 -3 -6 -6z"/>
<path d="M70 6975 c0 -3 5 -15 10 -25 12 -22 40 -16 40 9 0 12 -2 13 -9 3 -6
-11 -11 -10 -25 3 -9 9 -16 14 -16 10z"/>
<path d="M0 6835 c0 -8 4 -15 8 -15 5 0 9 7 9 15 0 8 -4 15 -9 15 -4 0 -8 -7
-8 -15z"/>
<path d="M120 6650 c0 -5 5 -10 10 -10 6 0 10 5 10 10 0 6 -4 10 -10 10 -5 0
-10 -4 -10 -10z"/>
<path d="M180 6601 c0 -5 20 -8 44 -8 24 1 42 5 39 10 -6 10 -83 9 -83 -2z"/>
<path d="M178 6573 c7 -3 16 -2 19 1 4 3 -2 6 -13 5 -11 0 -14 -3 -6 -6z"/>
<path d="M250 6513 c5 -2 10 -11 10 -18 0 -8 4 -17 10 -20 6 -4 7 2 1 16 -4
13 -13 24 -20 25 -6 1 -7 0 -1 -3z"/>
<path d="M9185 6437 l-60 -32 54 -3 c29 -2 60 -1 67 2 14 5 20 66 7 66 -5 -1
-35 -15 -68 -33z"/>
<path d="M538 6349 c-3 -8 1 -20 8 -27 15 -14 17 -7 5 22 -6 15 -9 16 -13 5z"/>
<path d="M345 6240 c3 -5 8 -10 11 -10 2 0 4 5 4 10 0 6 -5 10 -11 10 -5 0 -7
-4 -4 -10z"/>
<path d="M374 6233 c3 -7 -1 -13 -11 -15 -15 -3 -15 -5 3 -10 22 -6 28 12 9
29 -4 4 -5 3 -1 -4z"/>
<path d="M494 6205 c1 -8 6 -18 11 -22 4 -4 5 -3 2 4 -4 6 -2 13 5 15 8 3 6 6
-4 10 -10 4 -15 2 -14 -7z"/>
<path d="M9220 6210 c-13 -8 -13 -10 2 -10 9 0 20 5 23 10 8 13 -5 13 -25 0z"/>
<path d="M1180 5709 c0 -5 5 -7 10 -4 6 3 10 8 10 11 0 2 -4 4 -10 4 -5 0 -10
-5 -10 -11z"/>
<path d="M1265 5631 c-3 -5 -1 -12 5 -16 5 -3 10 1 10 9 0 18 -6 21 -15 7z"/>
<path d="M1415 5403 c-3 -10 -3 -14 1 -10 4 4 13 2 21 -4 17 -15 17 -1 -1 16
-12 12 -15 12 -21 -2z"/>
<path d="M3372 5200 c0 -19 2 -27 5 -17 2 9 2 25 0 35 -3 9 -5 1 -5 -18z"/>
<path d="M3362 5100 c0 -19 2 -27 5 -17 2 9 2 25 0 35 -3 9 -5 1 -5 -18z"/>
<path d="M3352 5000 c0 -14 2 -19 5 -12 2 6 2 18 0 25 -3 6 -5 1 -5 -13z"/>
<path d="M3342 4940 c0 -19 2 -27 5 -17 2 9 2 25 0 35 -3 9 -5 1 -5 -18z"/>
<path d="M1658 4476 c-31 -12 -59 -24 -63 -27 -3 -3 23 -9 57 -12 67 -6 78 0
78 41 0 26 1 26 -72 -2z"/>
<path d="M1670 4280 c0 -5 5 -10 10 -10 6 0 10 5 10 10 0 6 -4 10 -10 10 -5 0
-10 -4 -10 -10z"/>
<path d="M1591 4231 c-7 -5 -11 -15 -9 -22 3 -10 8 -7 17 9 13 24 12 26 -8 13z"/>
</g>
</svg>
